<?xml version="1.0" encoding="utf-8" standalone="no"?>
<!DOCTYPE svg PUBLIC "-//W3C//DTD SVG 1.1//EN"
  "http://www.w3.org/Graphics/SVG/1.1/DTD/svg11.dtd">
<svg xmlns:xlink="http://www.w3.org/1999/xlink" width="1080pt" height="504pt" viewBox="0 0 1080 504" xmlns="http://www.w3.org/2000/svg" version="1.1">
 <metadata>
  <rdf:RDF xmlns:dc="http://purl.org/dc/elements/1.1/" xmlns:cc="http://creativecommons.org/ns#" xmlns:rdf="http://www.w3.org/1999/02/22-rdf-syntax-ns#">
   <cc:Work>
    <dc:type rdf:resource="http://purl.org/dc/dcmitype/StillImage"/>
    <dc:date>2022-08-13T19:22:10.955460</dc:date>
    <dc:format>image/svg+xml</dc:format>
    <dc:creator>
     <cc:Agent>
      <dc:title>Matplotlib v3.5.1, https://matplotlib.org/</dc:title>
     </cc:Agent>
    </dc:creator>
   </cc:Work>
  </rdf:RDF>
 </metadata>
 <defs>
  <style type="text/css">*{stroke-linejoin: round; stroke-linecap: butt}</style>
 </defs>
 <g id="figure_1">
  <g id="patch_1">
   <path d="M 0 504 
L 1080 504 
L 1080 0 
L 0 0 
z
" style="fill: #ffffff"/>
  </g>
  <g id="axes_1">
   <g id="LineCollection_1">
    <path d="M 540 71.02 
L 237.6 136.266 
" clip-path="url(#pd53e5eb1f3)" style="fill: none; stroke: #e53935; stroke-width: 5"/>
    <path d="M 540 71.02 
L 721.44 266.758 
" clip-path="url(#pd53e5eb1f3)" style="fill: none; stroke: #808080; stroke-opacity: 0.3; stroke-width: 3"/>
    <path d="M 540 71.02 
L 358.56 201.512 
" clip-path="url(#pd53e5eb1f3)" style="fill: none; stroke: #808080; stroke-opacity: 0.3; stroke-width: 3"/>
    <path d="M 540 71.02 
L 600.48 201.512 
" clip-path="url(#pd53e5eb1f3)" style="fill: none; stroke: #808080; stroke-opacity: 0.3; stroke-width: 3"/>
    <path d="M 540 71.02 
L 237.6 201.512 
" clip-path="url(#pd53e5eb1f3)" style="fill: none; stroke: #808080; stroke-opacity: 0.3; stroke-width: 3"/>
    <path d="M 540 71.02 
L 842.4 201.512 
" clip-path="url(#pd53e5eb1f3)" style="fill: none; stroke: #808080; stroke-opacity: 0.3; stroke-width: 3"/>
    <path d="M 540 71.02 
L 600.48 136.266 
" clip-path="url(#pd53e5eb1f3)" style="fill: none; stroke: #808080; stroke-opacity: 0.3; stroke-width: 3"/>
    <path d="M 540 71.02 
L 479.52 136.266 
" clip-path="url(#pd53e5eb1f3)" style="fill: none; stroke: #808080; stroke-opacity: 0.3; stroke-width: 3"/>
    <path d="M 540 71.02 
L 600.48 266.758 
" clip-path="url(#pd53e5eb1f3)" style="fill: none; stroke: #808080; stroke-opacity: 0.3; stroke-width: 3"/>
    <path d="M 540 71.02 
L 116.64 266.758 
" clip-path="url(#pd53e5eb1f3)" style="fill: none; stroke: #808080; stroke-opacity: 0.3; stroke-width: 3"/>
    <path d="M 540 71.02 
L 116.64 201.512 
" clip-path="url(#pd53e5eb1f3)" style="fill: none; stroke: #808080; stroke-opacity: 0.3; stroke-width: 3"/>
    <path d="M 540 71.02 
L 721.44 136.266 
" clip-path="url(#pd53e5eb1f3)" style="fill: none; stroke: #808080; stroke-opacity: 0.3; stroke-width: 3"/>
    <path d="M 540 71.02 
L 963.36 266.758 
" clip-path="url(#pd53e5eb1f3)" style="fill: none; stroke: #808080; stroke-opacity: 0.3; stroke-width: 3"/>
    <path d="M 540 71.02 
L 842.4 266.758 
" clip-path="url(#pd53e5eb1f3)" style="fill: none; stroke: #808080; stroke-opacity: 0.3; stroke-width: 3"/>
    <path d="M 540 71.02 
L 116.64 136.266 
" clip-path="url(#pd53e5eb1f3)" style="fill: none; stroke: #808080; stroke-opacity: 0.3; stroke-width: 3"/>
    <path d="M 540 71.02 
L 358.56 266.758 
" clip-path="url(#pd53e5eb1f3)" style="fill: none; stroke: #808080; stroke-opacity: 0.3; stroke-width: 3"/>
    <path d="M 540 71.02 
L 479.52 266.758 
" clip-path="url(#pd53e5eb1f3)" style="fill: none; stroke: #808080; stroke-opacity: 0.3; stroke-width: 3"/>
    <path d="M 540 71.02 
L 358.56 136.266 
" clip-path="url(#pd53e5eb1f3)" style="fill: none; stroke: #808080; stroke-opacity: 0.3; stroke-width: 3"/>
    <path d="M 540 71.02 
L 963.36 201.512 
" clip-path="url(#pd53e5eb1f3)" style="fill: none; stroke: #808080; stroke-opacity: 0.3; stroke-width: 3"/>
    <path d="M 540 71.02 
L 721.44 201.512 
" clip-path="url(#pd53e5eb1f3)" style="fill: none; stroke: #808080; stroke-opacity: 0.3; stroke-width: 3"/>
    <path d="M 540 71.02 
L 479.52 201.512 
" clip-path="url(#pd53e5eb1f3)" style="fill: none; stroke: #808080; stroke-opacity: 0.3; stroke-width: 3"/>
    <path d="M 540 71.02 
L 963.36 136.266 
" clip-path="url(#pd53e5eb1f3)" style="fill: none; stroke: #808080; stroke-opacity: 0.3; stroke-width: 3"/>
    <path d="M 540 71.02 
L 842.4 136.266 
" clip-path="url(#pd53e5eb1f3)" style="fill: none; stroke: #808080; stroke-opacity: 0.3; stroke-width: 3"/>
    <path d="M 540 71.02 
L 237.6 266.758 
" clip-path="url(#pd53e5eb1f3)" style="fill: none; stroke: #808080; stroke-opacity: 0.3; stroke-width: 3"/>
    <path d="M 237.6 136.266 
L 99 454.82 
" clip-path="url(#pd53e5eb1f3)" style="fill: none; stroke: #e53935; stroke-width: 5"/>
    <path d="M 237.6 136.266 
L 197 454.82 
" clip-path="url(#pd53e5eb1f3)" style="fill: none; stroke: #e53935; stroke-width: 5"/>
    <path d="M 721.44 266.758 
L 295 454.82 
" clip-path="url(#pd53e5eb1f3)" style="fill: none; stroke: #808080; stroke-opacity: 0.3; stroke-width: 3"/>
    <path d="M 721.44 266.758 
L 99 454.82 
" clip-path="url(#pd53e5eb1f3)" style="fill: none; stroke: #808080; stroke-opacity: 0.3; stroke-width: 3"/>
    <path d="M 721.44 266.758 
L 197 454.82 
" clip-path="url(#pd53e5eb1f3)" style="fill: none; stroke: #808080; stroke-opacity: 0.3; stroke-width: 3"/>
    <path d="M 721.44 266.758 
L 275.4 358.87 
" clip-path="url(#pd53e5eb1f3)" style="fill: none; stroke: #808080; stroke-opacity: 0.3; stroke-width: 3"/>
    <path d="M 275.4 358.87 
L 393 454.82 
" clip-path="url(#pd53e5eb1f3)" style="fill: none; stroke: #808080; stroke-opacity: 0.3; stroke-width: 3"/>
    <path d="M 275.4 358.87 
L 491 454.82 
" clip-path="url(#pd53e5eb1f3)" style="fill: none; stroke: #808080; stroke-opacity: 0.3; stroke-width: 3"/>
    <path d="M 275.4 358.87 
L 589 454.82 
" clip-path="url(#pd53e5eb1f3)" style="fill: none; stroke: #808080; stroke-opacity: 0.3; stroke-width: 3"/>
    <path d="M 358.56 201.512 
L 99 454.82 
" clip-path="url(#pd53e5eb1f3)" style="fill: none; stroke: #808080; stroke-opacity: 0.3; stroke-width: 3"/>
    <path d="M 358.56 201.512 
L 197 454.82 
" clip-path="url(#pd53e5eb1f3)" style="fill: none; stroke: #808080; stroke-opacity: 0.3; stroke-width: 3"/>
    <path d="M 358.56 201.512 
L 275.4 358.87 
" clip-path="url(#pd53e5eb1f3)" style="fill: none; stroke: #808080; stroke-opacity: 0.3; stroke-width: 3"/>
    <path d="M 600.48 201.512 
L 99 454.82 
" clip-path="url(#pd53e5eb1f3)" style="fill: none; stroke: #808080; stroke-opacity: 0.3; stroke-width: 3"/>
    <path d="M 600.48 201.512 
L 491 454.82 
" clip-path="url(#pd53e5eb1f3)" style="fill: none; stroke: #808080; stroke-opacity: 0.3; stroke-width: 3"/>
    <path d="M 600.48 201.512 
L 687 454.82 
" clip-path="url(#pd53e5eb1f3)" style="fill: none; stroke: #808080; stroke-opacity: 0.3; stroke-width: 3"/>
    <path d="M 237.6 201.512 
L 197 454.82 
" clip-path="url(#pd53e5eb1f3)" style="fill: none; stroke: #808080; stroke-opacity: 0.3; stroke-width: 3"/>
    <path d="M 237.6 201.512 
L 687 454.82 
" clip-path="url(#pd53e5eb1f3)" style="fill: none; stroke: #808080; stroke-opacity: 0.3; stroke-width: 3"/>
    <path d="M 842.4 201.512 
L 99 454.82 
" clip-path="url(#pd53e5eb1f3)" style="fill: none; stroke: #808080; stroke-opacity: 0.3; stroke-width: 3"/>
    <path d="M 842.4 201.512 
L 197 454.82 
" clip-path="url(#pd53e5eb1f3)" style="fill: none; stroke: #808080; stroke-opacity: 0.3; stroke-width: 3"/>
    <path d="M 842.4 201.512 
L 491 454.82 
" clip-path="url(#pd53e5eb1f3)" style="fill: none; stroke: #808080; stroke-opacity: 0.3; stroke-width: 3"/>
    <path d="M 842.4 201.512 
L 687 454.82 
" clip-path="url(#pd53e5eb1f3)" style="fill: none; stroke: #808080; stroke-opacity: 0.3; stroke-width: 3"/>
    <path d="M 600.48 136.266 
L 295 454.82 
" clip-path="url(#pd53e5eb1f3)" style="fill: none; stroke: #808080; stroke-opacity: 0.3; stroke-width: 3"/>
    <path d="M 600.48 136.266 
L 99 454.82 
" clip-path="url(#pd53e5eb1f3)" style="fill: none; stroke: #808080; stroke-opacity: 0.3; stroke-width: 3"/>
    <path d="M 600.48 136.266 
L 197 454.82 
" clip-path="url(#pd53e5eb1f3)" style="fill: none; stroke: #808080; stroke-opacity: 0.3; stroke-width: 3"/>
    <path d="M 600.48 136.266 
L 687 454.82 
" clip-path="url(#pd53e5eb1f3)" style="fill: none; stroke: #808080; stroke-opacity: 0.3; stroke-width: 3"/>
    <path d="M 600.48 136.266 
L 275.4 358.87 
" clip-path="url(#pd53e5eb1f3)" style="fill: none; stroke: #808080; stroke-opacity: 0.3; stroke-width: 3"/>
    <path d="M 479.52 136.266 
L 295 454.82 
" clip-path="url(#pd53e5eb1f3)" style="fill: none; stroke: #808080; stroke-opacity: 0.3; stroke-width: 3"/>
    <path d="M 479.52 136.266 
L 99 454.82 
" clip-path="url(#pd53e5eb1f3)" style="fill: none; stroke: #808080; stroke-opacity: 0.3; stroke-width: 3"/>
    <path d="M 479.52 136.266 
L 687 454.82 
" clip-path="url(#pd53e5eb1f3)" style="fill: none; stroke: #808080; stroke-opacity: 0.3; stroke-width: 3"/>
    <path d="M 479.52 136.266 
L 275.4 358.87 
" clip-path="url(#pd53e5eb1f3)" style="fill: none; stroke: #808080; stroke-opacity: 0.3; stroke-width: 3"/>
    <path d="M 600.48 266.758 
L 99 454.82 
" clip-path="url(#pd53e5eb1f3)" style="fill: none; stroke: #808080; stroke-opacity: 0.3; stroke-width: 3"/>
    <path d="M 600.48 266.758 
L 197 454.82 
" clip-path="url(#pd53e5eb1f3)" style="fill: none; stroke: #808080; stroke-opacity: 0.3; stroke-width: 3"/>
    <path d="M 600.48 266.758 
L 687 454.82 
" clip-path="url(#pd53e5eb1f3)" style="fill: none; stroke: #808080; stroke-opacity: 0.3; stroke-width: 3"/>
    <path d="M 600.48 266.758 
L 275.4 358.87 
" clip-path="url(#pd53e5eb1f3)" style="fill: none; stroke: #808080; stroke-opacity: 0.3; stroke-width: 3"/>
    <path d="M 600.48 266.758 
L 540 358.87 
" clip-path="url(#pd53e5eb1f3)" style="fill: none; stroke: #808080; stroke-opacity: 0.3; stroke-width: 3"/>
    <path d="M 540 358.87 
L 785 454.82 
" clip-path="url(#pd53e5eb1f3)" style="fill: none; stroke: #808080; stroke-opacity: 0.3; stroke-width: 3"/>
    <path d="M 540 358.87 
L 295 454.82 
" clip-path="url(#pd53e5eb1f3)" style="fill: none; stroke: #808080; stroke-opacity: 0.3; stroke-width: 3"/>
    <path d="M 540 358.87 
L 883 454.82 
" clip-path="url(#pd53e5eb1f3)" style="fill: none; stroke: #808080; stroke-opacity: 0.3; stroke-width: 3"/>
    <path d="M 116.64 266.758 
L 295 454.82 
" clip-path="url(#pd53e5eb1f3)" style="fill: none; stroke: #808080; stroke-opacity: 0.3; stroke-width: 3"/>
    <path d="M 116.64 266.758 
L 99 454.82 
" clip-path="url(#pd53e5eb1f3)" style="fill: none; stroke: #808080; stroke-opacity: 0.3; stroke-width: 3"/>
    <path d="M 116.64 266.758 
L 275.4 358.87 
" clip-path="url(#pd53e5eb1f3)" style="fill: none; stroke: #808080; stroke-opacity: 0.3; stroke-width: 3"/>
    <path d="M 116.64 201.512 
L 99 454.82 
" clip-path="url(#pd53e5eb1f3)" style="fill: none; stroke: #808080; stroke-opacity: 0.3; stroke-width: 3"/>
    <path d="M 721.44 136.266 
L 99 454.82 
" clip-path="url(#pd53e5eb1f3)" style="fill: none; stroke: #808080; stroke-opacity: 0.3; stroke-width: 3"/>
    <path d="M 721.44 136.266 
L 197 454.82 
" clip-path="url(#pd53e5eb1f3)" style="fill: none; stroke: #808080; stroke-opacity: 0.3; stroke-width: 3"/>
    <path d="M 721.44 136.266 
L 275.4 358.87 
" clip-path="url(#pd53e5eb1f3)" style="fill: none; stroke: #808080; stroke-opacity: 0.3; stroke-width: 3"/>
    <path d="M 721.44 136.266 
L 540 358.87 
" clip-path="url(#pd53e5eb1f3)" style="fill: none; stroke: #808080; stroke-opacity: 0.3; stroke-width: 3"/>
    <path d="M 963.36 266.758 
L 99 454.82 
" clip-path="url(#pd53e5eb1f3)" style="fill: none; stroke: #808080; stroke-opacity: 0.3; stroke-width: 3"/>
    <path d="M 963.36 266.758 
L 197 454.82 
" clip-path="url(#pd53e5eb1f3)" style="fill: none; stroke: #808080; stroke-opacity: 0.3; stroke-width: 3"/>
    <path d="M 963.36 266.758 
L 687 454.82 
" clip-path="url(#pd53e5eb1f3)" style="fill: none; stroke: #808080; stroke-opacity: 0.3; stroke-width: 3"/>
    <path d="M 963.36 266.758 
L 275.4 358.87 
" clip-path="url(#pd53e5eb1f3)" style="fill: none; stroke: #808080; stroke-opacity: 0.3; stroke-width: 3"/>
    <path d="M 842.4 266.758 
L 295 454.82 
" clip-path="url(#pd53e5eb1f3)" style="fill: none; stroke: #808080; stroke-opacity: 0.3; stroke-width: 3"/>
    <path d="M 842.4 266.758 
L 883 454.82 
" clip-path="url(#pd53e5eb1f3)" style="fill: none; stroke: #808080; stroke-opacity: 0.3; stroke-width: 3"/>
    <path d="M 842.4 266.758 
L 99 454.82 
" clip-path="url(#pd53e5eb1f3)" style="fill: none; stroke: #808080; stroke-opacity: 0.3; stroke-width: 3"/>
    <path d="M 842.4 266.758 
L 197 454.82 
" clip-path="url(#pd53e5eb1f3)" style="fill: none; stroke: #808080; stroke-opacity: 0.3; stroke-width: 3"/>
    <path d="M 842.4 266.758 
L 687 454.82 
" clip-path="url(#pd53e5eb1f3)" style="fill: none; stroke: #808080; stroke-opacity: 0.3; stroke-width: 3"/>
    <path d="M 842.4 266.758 
L 275.4 358.87 
" clip-path="url(#pd53e5eb1f3)" style="fill: none; stroke: #808080; stroke-opacity: 0.3; stroke-width: 3"/>
    <path d="M 116.64 136.266 
L 295 454.82 
" clip-path="url(#pd53e5eb1f3)" style="fill: none; stroke: #808080; stroke-opacity: 0.3; stroke-width: 3"/>
    <path d="M 116.64 136.266 
L 99 454.82 
" clip-path="url(#pd53e5eb1f3)" style="fill: none; stroke: #808080; stroke-opacity: 0.3; stroke-width: 3"/>
    <path d="M 116.64 136.266 
L 197 454.82 
" clip-path="url(#pd53e5eb1f3)" style="fill: none; stroke: #808080; stroke-opacity: 0.3; stroke-width: 3"/>
    <path d="M 116.64 136.266 
L 491 454.82 
" clip-path="url(#pd53e5eb1f3)" style="fill: none; stroke: #808080; stroke-opacity: 0.3; stroke-width: 3"/>
    <path d="M 116.64 136.266 
L 804.6 358.87 
" clip-path="url(#pd53e5eb1f3)" style="fill: none; stroke: #808080; stroke-opacity: 0.3; stroke-width: 3"/>
    <path d="M 804.6 358.87 
L 981 454.82 
" clip-path="url(#pd53e5eb1f3)" style="fill: none; stroke: #808080; stroke-opacity: 0.3; stroke-width: 3"/>
    <path d="M 804.6 358.87 
L 687 454.82 
" clip-path="url(#pd53e5eb1f3)" style="fill: none; stroke: #808080; stroke-opacity: 0.3; stroke-width: 3"/>
    <path d="M 358.56 266.758 
L 99 454.82 
" clip-path="url(#pd53e5eb1f3)" style="fill: none; stroke: #808080; stroke-opacity: 0.3; stroke-width: 3"/>
    <path d="M 358.56 266.758 
L 275.4 358.87 
" clip-path="url(#pd53e5eb1f3)" style="fill: none; stroke: #808080; stroke-opacity: 0.3; stroke-width: 3"/>
    <path d="M 479.52 266.758 
L 295 454.82 
" clip-path="url(#pd53e5eb1f3)" style="fill: none; stroke: #808080; stroke-opacity: 0.3; stroke-width: 3"/>
    <path d="M 479.52 266.758 
L 883 454.82 
" clip-path="url(#pd53e5eb1f3)" style="fill: none; stroke: #808080; stroke-opacity: 0.3; stroke-width: 3"/>
    <path d="M 479.52 266.758 
L 99 454.82 
" clip-path="url(#pd53e5eb1f3)" style="fill: none; stroke: #808080; stroke-opacity: 0.3; stroke-width: 3"/>
    <path d="M 479.52 266.758 
L 197 454.82 
" clip-path="url(#pd53e5eb1f3)" style="fill: none; stroke: #808080; stroke-opacity: 0.3; stroke-width: 3"/>
    <path d="M 479.52 266.758 
L 275.4 358.87 
" clip-path="url(#pd53e5eb1f3)" style="fill: none; stroke: #808080; stroke-opacity: 0.3; stroke-width: 3"/>
    <path d="M 358.56 136.266 
L 99 454.82 
" clip-path="url(#pd53e5eb1f3)" style="fill: none; stroke: #808080; stroke-opacity: 0.3; stroke-width: 3"/>
    <path d="M 358.56 136.266 
L 197 454.82 
" clip-path="url(#pd53e5eb1f3)" style="fill: none; stroke: #808080; stroke-opacity: 0.3; stroke-width: 3"/>
    <path d="M 358.56 136.266 
L 491 454.82 
" clip-path="url(#pd53e5eb1f3)" style="fill: none; stroke: #808080; stroke-opacity: 0.3; stroke-width: 3"/>
    <path d="M 358.56 136.266 
L 804.6 358.87 
" clip-path="url(#pd53e5eb1f3)" style="fill: none; stroke: #808080; stroke-opacity: 0.3; stroke-width: 3"/>
    <path d="M 963.36 201.512 
L 99 454.82 
" clip-path="url(#pd53e5eb1f3)" style="fill: none; stroke: #808080; stroke-opacity: 0.3; stroke-width: 3"/>
    <path d="M 963.36 201.512 
L 687 454.82 
" clip-path="url(#pd53e5eb1f3)" style="fill: none; stroke: #808080; stroke-opacity: 0.3; stroke-width: 3"/>
    <path d="M 963.36 201.512 
L 275.4 358.87 
" clip-path="url(#pd53e5eb1f3)" style="fill: none; stroke: #808080; stroke-opacity: 0.3; stroke-width: 3"/>
    <path d="M 721.44 201.512 
L 491 454.82 
" clip-path="url(#pd53e5eb1f3)" style="fill: none; stroke: #808080; stroke-opacity: 0.3; stroke-width: 3"/>
    <path d="M 479.52 201.512 
L 295 454.82 
" clip-path="url(#pd53e5eb1f3)" style="fill: none; stroke: #808080; stroke-opacity: 0.3; stroke-width: 3"/>
    <path d="M 479.52 201.512 
L 99 454.82 
" clip-path="url(#pd53e5eb1f3)" style="fill: none; stroke: #808080; stroke-opacity: 0.3; stroke-width: 3"/>
    <path d="M 479.52 201.512 
L 197 454.82 
" clip-path="url(#pd53e5eb1f3)" style="fill: none; stroke: #808080; stroke-opacity: 0.3; stroke-width: 3"/>
    <path d="M 479.52 201.512 
L 804.6 358.87 
" clip-path="url(#pd53e5eb1f3)" style="fill: none; stroke: #808080; stroke-opacity: 0.3; stroke-width: 3"/>
    <path d="M 963.36 136.266 
L 99 454.82 
" clip-path="url(#pd53e5eb1f3)" style="fill: none; stroke: #808080; stroke-opacity: 0.3; stroke-width: 3"/>
    <path d="M 963.36 136.266 
L 197 454.82 
" clip-path="url(#pd53e5eb1f3)" style="fill: none; stroke: #808080; stroke-opacity: 0.3; stroke-width: 3"/>
    <path d="M 963.36 136.266 
L 804.6 358.87 
" clip-path="url(#pd53e5eb1f3)" style="fill: none; stroke: #808080; stroke-opacity: 0.3; stroke-width: 3"/>
    <path d="M 842.4 136.266 
L 883 454.82 
" clip-path="url(#pd53e5eb1f3)" style="fill: none; stroke: #808080; stroke-opacity: 0.3; stroke-width: 3"/>
    <path d="M 842.4 136.266 
L 99 454.82 
" clip-path="url(#pd53e5eb1f3)" style="fill: none; stroke: #808080; stroke-opacity: 0.3; stroke-width: 3"/>
    <path d="M 842.4 136.266 
L 197 454.82 
" clip-path="url(#pd53e5eb1f3)" style="fill: none; stroke: #808080; stroke-opacity: 0.3; stroke-width: 3"/>
    <path d="M 842.4 136.266 
L 687 454.82 
" clip-path="url(#pd53e5eb1f3)" style="fill: none; stroke: #808080; stroke-opacity: 0.3; stroke-width: 3"/>
    <path d="M 842.4 136.266 
L 275.4 358.87 
" clip-path="url(#pd53e5eb1f3)" style="fill: none; stroke: #808080; stroke-opacity: 0.3; stroke-width: 3"/>
    <path d="M 237.6 266.758 
L 99 454.82 
" clip-path="url(#pd53e5eb1f3)" style="fill: none; stroke: #808080; stroke-opacity: 0.3; stroke-width: 3"/>
    <path d="M 237.6 266.758 
L 275.4 358.87 
" clip-path="url(#pd53e5eb1f3)" style="fill: none; stroke: #808080; stroke-opacity: 0.3; stroke-width: 3"/>
    <path d="M 237.6 266.758 
L 540 358.87 
" clip-path="url(#pd53e5eb1f3)" style="fill: none; stroke: #808080; stroke-opacity: 0.3; stroke-width: 3"/>
   </g>
   <g id="PathCollection_1">
    <path d="M 524.188612 86.831388 
L 555.811388 86.831388 
L 555.811388 55.208612 
L 524.188612 55.208612 
L 524.188612 86.831388 
z
" clip-path="url(#pd53e5eb1f3)" style="fill: none"/>
    <path d="M 221.788612 152.077388 
L 253.411388 152.077388 
L 253.411388 120.454612 
L 221.788612 120.454612 
L 221.788612 152.077388 
z
" clip-path="url(#pd53e5eb1f3)" style="fill: none"/>
    <path d="M 83.188612 470.631388 
L 114.811388 470.631388 
L 114.811388 439.008612 
L 83.188612 439.008612 
L 83.188612 470.631388 
z
" clip-path="url(#pd53e5eb1f3)" style="fill: none"/>
    <path d="M 181.188612 470.631388 
L 212.811388 470.631388 
L 212.811388 439.008612 
L 181.188612 439.008612 
L 181.188612 470.631388 
z
" clip-path="url(#pd53e5eb1f3)" style="fill: none"/>
    <path d="M 705.628612 282.569388 
L 737.251388 282.569388 
L 737.251388 250.946612 
L 705.628612 250.946612 
L 705.628612 282.569388 
z
" clip-path="url(#pd53e5eb1f3)" style="fill: none"/>
    <path d="M 279.188612 470.631388 
L 310.811388 470.631388 
L 310.811388 439.008612 
L 279.188612 439.008612 
L 279.188612 470.631388 
z
" clip-path="url(#pd53e5eb1f3)" style="fill: none"/>
    <path d="M 248.013872 386.256128 
L 302.786128 386.256128 
L 302.786128 331.483872 
L 248.013872 331.483872 
L 248.013872 386.256128 
z
" clip-path="url(#pd53e5eb1f3)" style="fill: none"/>
    <path d="M 377.188612 470.631388 
L 408.811388 470.631388 
L 408.811388 439.008612 
L 377.188612 439.008612 
L 377.188612 470.631388 
z
" clip-path="url(#pd53e5eb1f3)" style="fill: none"/>
    <path d="M 475.188612 470.631388 
L 506.811388 470.631388 
L 506.811388 439.008612 
L 475.188612 439.008612 
L 475.188612 470.631388 
z
" clip-path="url(#pd53e5eb1f3)" style="fill: none"/>
    <path d="M 573.188612 470.631388 
L 604.811388 470.631388 
L 604.811388 439.008612 
L 573.188612 439.008612 
L 573.188612 470.631388 
z
" clip-path="url(#pd53e5eb1f3)" style="fill: none"/>
    <path d="M 342.748612 217.323388 
L 374.371388 217.323388 
L 374.371388 185.700612 
L 342.748612 185.700612 
L 342.748612 217.323388 
z
" clip-path="url(#pd53e5eb1f3)" style="fill: none"/>
    <path d="M 584.668612 217.323388 
L 616.291388 217.323388 
L 616.291388 185.700612 
L 584.668612 185.700612 
L 584.668612 217.323388 
z
" clip-path="url(#pd53e5eb1f3)" style="fill: none"/>
    <path d="M 671.188612 470.631388 
L 702.811388 470.631388 
L 702.811388 439.008612 
L 671.188612 439.008612 
L 671.188612 470.631388 
z
" clip-path="url(#pd53e5eb1f3)" style="fill: none"/>
    <path d="M 221.788612 217.323388 
L 253.411388 217.323388 
L 253.411388 185.700612 
L 221.788612 185.700612 
L 221.788612 217.323388 
z
" clip-path="url(#pd53e5eb1f3)" style="fill: none"/>
    <path d="M 826.588612 217.323388 
L 858.211388 217.323388 
L 858.211388 185.700612 
L 826.588612 185.700612 
L 826.588612 217.323388 
z
" clip-path="url(#pd53e5eb1f3)" style="fill: none"/>
    <path d="M 584.668612 152.077388 
L 616.291388 152.077388 
L 616.291388 120.454612 
L 584.668612 120.454612 
L 584.668612 152.077388 
z
" clip-path="url(#pd53e5eb1f3)" style="fill: none"/>
    <path d="M 463.708612 152.077388 
L 495.331388 152.077388 
L 495.331388 120.454612 
L 463.708612 120.454612 
L 463.708612 152.077388 
z
" clip-path="url(#pd53e5eb1f3)" style="fill: none"/>
    <path d="M 584.668612 282.569388 
L 616.291388 282.569388 
L 616.291388 250.946612 
L 584.668612 250.946612 
L 584.668612 282.569388 
z
" clip-path="url(#pd53e5eb1f3)" style="fill: none"/>
    <path d="M 512.613872 386.256128 
L 567.386128 386.256128 
L 567.386128 331.483872 
L 512.613872 331.483872 
L 512.613872 386.256128 
z
" clip-path="url(#pd53e5eb1f3)" style="fill: none"/>
    <path d="M 769.188612 470.631388 
L 800.811388 470.631388 
L 800.811388 439.008612 
L 769.188612 439.008612 
L 769.188612 470.631388 
z
" clip-path="url(#pd53e5eb1f3)" style="fill: none"/>
    <path d="M 867.188612 470.631388 
L 898.811388 470.631388 
L 898.811388 439.008612 
L 867.188612 439.008612 
L 867.188612 470.631388 
z
" clip-path="url(#pd53e5eb1f3)" style="fill: none"/>
    <path d="M 100.828612 282.569388 
L 132.451388 282.569388 
L 132.451388 250.946612 
L 100.828612 250.946612 
L 100.828612 282.569388 
z
" clip-path="url(#pd53e5eb1f3)" style="fill: none"/>
    <path d="M 100.828612 217.323388 
L 132.451388 217.323388 
L 132.451388 185.700612 
L 100.828612 185.700612 
L 100.828612 217.323388 
z
" clip-path="url(#pd53e5eb1f3)" style="fill: none"/>
    <path d="M 705.628612 152.077388 
L 737.251388 152.077388 
L 737.251388 120.454612 
L 705.628612 120.454612 
L 705.628612 152.077388 
z
" clip-path="url(#pd53e5eb1f3)" style="fill: none"/>
    <path d="M 947.548612 282.569388 
L 979.171388 282.569388 
L 979.171388 250.946612 
L 947.548612 250.946612 
L 947.548612 282.569388 
z
" clip-path="url(#pd53e5eb1f3)" style="fill: none"/>
    <path d="M 826.588612 282.569388 
L 858.211388 282.569388 
L 858.211388 250.946612 
L 826.588612 250.946612 
L 826.588612 282.569388 
z
" clip-path="url(#pd53e5eb1f3)" style="fill: none"/>
    <path d="M 100.828612 152.077388 
L 132.451388 152.077388 
L 132.451388 120.454612 
L 100.828612 120.454612 
L 100.828612 152.077388 
z
" clip-path="url(#pd53e5eb1f3)" style="fill: none"/>
    <path d="M 782.23932 381.23068 
L 826.96068 381.23068 
L 826.96068 336.50932 
L 782.23932 336.50932 
L 782.23932 381.23068 
z
" clip-path="url(#pd53e5eb1f3)" style="fill: none"/>
    <path d="M 965.188612 470.631388 
L 996.811388 470.631388 
L 996.811388 439.008612 
L 965.188612 439.008612 
L 965.188612 470.631388 
z
" clip-path="url(#pd53e5eb1f3)" style="fill: none"/>
    <path d="M 342.748612 282.569388 
L 374.371388 282.569388 
L 374.371388 250.946612 
L 342.748612 250.946612 
L 342.748612 282.569388 
z
" clip-path="url(#pd53e5eb1f3)" style="fill: none"/>
    <path d="M 463.708612 282.569388 
L 495.331388 282.569388 
L 495.331388 250.946612 
L 463.708612 250.946612 
L 463.708612 282.569388 
z
" clip-path="url(#pd53e5eb1f3)" style="fill: none"/>
    <path d="M 342.748612 152.077388 
L 374.371388 152.077388 
L 374.371388 120.454612 
L 342.748612 120.454612 
L 342.748612 152.077388 
z
" clip-path="url(#pd53e5eb1f3)" style="fill: none"/>
    <path d="M 947.548612 217.323388 
L 979.171388 217.323388 
L 979.171388 185.700612 
L 947.548612 185.700612 
L 947.548612 217.323388 
z
" clip-path="url(#pd53e5eb1f3)" style="fill: none"/>
    <path d="M 705.628612 217.323388 
L 737.251388 217.323388 
L 737.251388 185.700612 
L 705.628612 185.700612 
L 705.628612 217.323388 
z
" clip-path="url(#pd53e5eb1f3)" style="fill: none"/>
    <path d="M 463.708612 217.323388 
L 495.331388 217.323388 
L 495.331388 185.700612 
L 463.708612 185.700612 
L 463.708612 217.323388 
z
" clip-path="url(#pd53e5eb1f3)" style="fill: none"/>
    <path d="M 947.548612 152.077388 
L 979.171388 152.077388 
L 979.171388 120.454612 
L 947.548612 120.454612 
L 947.548612 152.077388 
z
" clip-path="url(#pd53e5eb1f3)" style="fill: none"/>
    <path d="M 826.588612 152.077388 
L 858.211388 152.077388 
L 858.211388 120.454612 
L 826.588612 120.454612 
L 826.588612 152.077388 
z
" clip-path="url(#pd53e5eb1f3)" style="fill: none"/>
    <path d="M 221.788612 282.569388 
L 253.411388 282.569388 
L 253.411388 250.946612 
L 221.788612 250.946612 
L 221.788612 282.569388 
z
" clip-path="url(#pd53e5eb1f3)" style="fill: none"/>
   </g>
   <g id="text_1">
    <g id="patch_2">
     <path d="M 531.620312 90.698125 
L 548.379687 90.698125 
Q 558.379687 90.698125 558.379687 80.698125 
L 558.379687 61.341875 
Q 558.379687 51.341875 548.379687 51.341875 
L 531.620312 51.341875 
Q 521.620312 51.341875 521.620312 61.341875 
L 521.620312 80.698125 
Q 521.620312 90.698125 531.620312 90.698125 
z
" clip-path="url(#pd53e5eb1f3)" style="fill: #f3f3f3"/>
    </g>
    <g clip-path="url(#pd53e5eb1f3)">
     <!-- + -->
     <g transform="translate(531.620312 76.53875)scale(0.2 -0.2)">
      <defs>
       <path id="DejaVuSans-2b" d="M 2944 4013 
L 2944 2272 
L 4684 2272 
L 4684 1741 
L 2944 1741 
L 2944 0 
L 2419 0 
L 2419 1741 
L 678 1741 
L 678 2272 
L 2419 2272 
L 2419 4013 
L 2944 4013 
z
" transform="scale(0.015625)"/>
      </defs>
      <use xlink:href="#DejaVuSans-2b"/>
     </g>
    </g>
   </g>
   <g id="text_2">
    <g id="patch_3">
     <path d="M 215.334375 155.944125 
L 259.865625 155.944125 
Q 269.865625 155.944125 269.865625 145.944125 
L 269.865625 126.587875 
Q 269.865625 116.587875 259.865625 116.587875 
L 215.334375 116.587875 
Q 205.334375 116.587875 205.334375 126.587875 
L 205.334375 145.944125 
Q 205.334375 155.944125 215.334375 155.944125 
z
" clip-path="url(#pd53e5eb1f3)" style="fill: #e53935"/>
    </g>
    <g clip-path="url(#pd53e5eb1f3)">
     <!-- 0.03 -->
     <g transform="translate(215.334375 141.78475)scale(0.2 -0.2)">
      <defs>
       <path id="DejaVuSans-30" d="M 2034 4250 
Q 1547 4250 1301 3770 
Q 1056 3291 1056 2328 
Q 1056 1369 1301 889 
Q 1547 409 2034 409 
Q 2525 409 2770 889 
Q 3016 1369 3016 2328 
Q 3016 3291 2770 3770 
Q 2525 4250 2034 4250 
z
M 2034 4750 
Q 2819 4750 3233 4129 
Q 3647 3509 3647 2328 
Q 3647 1150 3233 529 
Q 2819 -91 2034 -91 
Q 1250 -91 836 529 
Q 422 1150 422 2328 
Q 422 3509 836 4129 
Q 1250 4750 2034 4750 
z
" transform="scale(0.015625)"/>
       <path id="DejaVuSans-2e" d="M 684 794 
L 1344 794 
L 1344 0 
L 684 0 
L 684 794 
z
" transform="scale(0.015625)"/>
       <path id="DejaVuSans-33" d="M 2597 2516 
Q 3050 2419 3304 2112 
Q 3559 1806 3559 1356 
Q 3559 666 3084 287 
Q 2609 -91 1734 -91 
Q 1441 -91 1130 -33 
Q 819 25 488 141 
L 488 750 
Q 750 597 1062 519 
Q 1375 441 1716 441 
Q 2309 441 2620 675 
Q 2931 909 2931 1356 
Q 2931 1769 2642 2001 
Q 2353 2234 1838 2234 
L 1294 2234 
L 1294 2753 
L 1863 2753 
Q 2328 2753 2575 2939 
Q 2822 3125 2822 3475 
Q 2822 3834 2567 4026 
Q 2313 4219 1838 4219 
Q 1578 4219 1281 4162 
Q 984 4106 628 3988 
L 628 4550 
Q 988 4650 1302 4700 
Q 1616 4750 1894 4750 
Q 2613 4750 3031 4423 
Q 3450 4097 3450 3541 
Q 3450 3153 3228 2886 
Q 3006 2619 2597 2516 
z
" transform="scale(0.015625)"/>
      </defs>
      <use xlink:href="#DejaVuSans-30"/>
      <use xlink:href="#DejaVuSans-2e" x="63.623047"/>
      <use xlink:href="#DejaVuSans-30" x="95.410156"/>
      <use xlink:href="#DejaVuSans-33" x="159.033203"/>
     </g>
    </g>
   </g>
   <g id="text_3">
    <g id="patch_4">
     <path d="M 84.86875 474.498125 
L 113.13125 474.498125 
Q 123.13125 474.498125 123.13125 464.498125 
L 123.13125 445.141875 
Q 123.13125 435.141875 113.13125 435.141875 
L 84.86875 435.141875 
Q 74.86875 435.141875 74.86875 445.141875 
L 74.86875 464.498125 
Q 74.86875 474.498125 84.86875 474.498125 
z
" clip-path="url(#pd53e5eb1f3)" style="fill: #f3f3f3"/>
    </g>
    <g clip-path="url(#pd53e5eb1f3)">
     <!-- F↑ -->
     <g transform="translate(84.86875 460.33875)scale(0.2 -0.2)">
      <defs>
       <path id="DejaVuSans-46" d="M 628 4666 
L 3309 4666 
L 3309 4134 
L 1259 4134 
L 1259 2759 
L 3109 2759 
L 3109 2228 
L 1259 2228 
L 1259 0 
L 628 0 
L 628 4666 
z
" transform="scale(0.015625)"/>
       <path id="DejaVuSans-2191" d="M 2541 4688 
L 2822 4688 
L 4047 3456 
L 3672 3081 
L 2947 3813 
L 2947 0 
L 2416 0 
L 2416 3813 
L 1684 3081 
L 1309 3456 
L 2541 4688 
z
" transform="scale(0.015625)"/>
      </defs>
      <use xlink:href="#DejaVuSans-46"/>
      <use xlink:href="#DejaVuSans-2191" x="57.519531"/>
     </g>
    </g>
   </g>
   <g id="text_4">
    <g id="patch_5">
     <path d="M 180.871875 474.498125 
L 213.128125 474.498125 
Q 223.128125 474.498125 223.128125 464.498125 
L 223.128125 445.141875 
Q 223.128125 435.141875 213.128125 435.141875 
L 180.871875 435.141875 
Q 170.871875 435.141875 170.871875 445.141875 
L 170.871875 464.498125 
Q 170.871875 474.498125 180.871875 474.498125 
z
" clip-path="url(#pd53e5eb1f3)" style="fill: #f3f3f3"/>
    </g>
    <g clip-path="url(#pd53e5eb1f3)">
     <!-- G↑ -->
     <g transform="translate(180.871875 460.33875)scale(0.2 -0.2)">
      <defs>
       <path id="DejaVuSans-47" d="M 3809 666 
L 3809 1919 
L 2778 1919 
L 2778 2438 
L 4434 2438 
L 4434 434 
Q 4069 175 3628 42 
Q 3188 -91 2688 -91 
Q 1594 -91 976 548 
Q 359 1188 359 2328 
Q 359 3472 976 4111 
Q 1594 4750 2688 4750 
Q 3144 4750 3555 4637 
Q 3966 4525 4313 4306 
L 4313 3634 
Q 3963 3931 3569 4081 
Q 3175 4231 2741 4231 
Q 1884 4231 1454 3753 
Q 1025 3275 1025 2328 
Q 1025 1384 1454 906 
Q 1884 428 2741 428 
Q 3075 428 3337 486 
Q 3600 544 3809 666 
z
" transform="scale(0.015625)"/>
      </defs>
      <use xlink:href="#DejaVuSans-47"/>
      <use xlink:href="#DejaVuSans-2191" x="77.490234"/>
     </g>
    </g>
   </g>
   <g id="text_5">
    <g id="patch_6">
     <path d="M 699.174375 286.436125 
L 743.705625 286.436125 
Q 753.705625 286.436125 753.705625 276.436125 
L 753.705625 257.079875 
Q 753.705625 247.079875 743.705625 247.079875 
L 699.174375 247.079875 
Q 689.174375 247.079875 689.174375 257.079875 
L 689.174375 276.436125 
Q 689.174375 286.436125 699.174375 286.436125 
z
" clip-path="url(#pd53e5eb1f3)" style="fill: #eb6662"/>
    </g>
    <g clip-path="url(#pd53e5eb1f3)">
     <!-- 0.02 -->
     <g transform="translate(699.174375 272.27675)scale(0.2 -0.2)">
      <defs>
       <path id="DejaVuSans-32" d="M 1228 531 
L 3431 531 
L 3431 0 
L 469 0 
L 469 531 
Q 828 903 1448 1529 
Q 2069 2156 2228 2338 
Q 2531 2678 2651 2914 
Q 2772 3150 2772 3378 
Q 2772 3750 2511 3984 
Q 2250 4219 1831 4219 
Q 1534 4219 1204 4116 
Q 875 4013 500 3803 
L 500 4441 
Q 881 4594 1212 4672 
Q 1544 4750 1819 4750 
Q 2544 4750 2975 4387 
Q 3406 4025 3406 3419 
Q 3406 3131 3298 2873 
Q 3191 2616 2906 2266 
Q 2828 2175 2409 1742 
Q 1991 1309 1228 531 
z
" transform="scale(0.015625)"/>
      </defs>
      <use xlink:href="#DejaVuSans-30"/>
      <use xlink:href="#DejaVuSans-2e" x="63.623047"/>
      <use xlink:href="#DejaVuSans-30" x="95.410156"/>
      <use xlink:href="#DejaVuSans-32" x="159.033203"/>
     </g>
    </g>
   </g>
   <g id="text_6">
    <g id="patch_7">
     <path d="M 279.6375 474.498125 
L 310.3625 474.498125 
Q 320.3625 474.498125 320.3625 464.498125 
L 320.3625 445.141875 
Q 320.3625 435.141875 310.3625 435.141875 
L 279.6375 435.141875 
Q 269.6375 435.141875 269.6375 445.141875 
L 269.6375 464.498125 
Q 269.6375 474.498125 279.6375 474.498125 
z
" clip-path="url(#pd53e5eb1f3)" style="fill: #f3f3f3"/>
    </g>
    <g clip-path="url(#pd53e5eb1f3)">
     <!-- C↓ -->
     <g transform="translate(279.6375 460.33875)scale(0.2 -0.2)">
      <defs>
       <path id="DejaVuSans-43" d="M 4122 4306 
L 4122 3641 
Q 3803 3938 3442 4084 
Q 3081 4231 2675 4231 
Q 1875 4231 1450 3742 
Q 1025 3253 1025 2328 
Q 1025 1406 1450 917 
Q 1875 428 2675 428 
Q 3081 428 3442 575 
Q 3803 722 4122 1019 
L 4122 359 
Q 3791 134 3420 21 
Q 3050 -91 2638 -91 
Q 1578 -91 968 557 
Q 359 1206 359 2328 
Q 359 3453 968 4101 
Q 1578 4750 2638 4750 
Q 3056 4750 3426 4639 
Q 3797 4528 4122 4306 
z
" transform="scale(0.015625)"/>
       <path id="DejaVuSans-2193" d="M 2822 -22 
L 2541 -22 
L 1309 1209 
L 1684 1584 
L 2416 853 
L 2416 4666 
L 2947 4666 
L 2947 853 
L 3672 1584 
L 4047 1209 
L 2822 -22 
z
" transform="scale(0.015625)"/>
      </defs>
      <use xlink:href="#DejaVuSans-43"/>
      <use xlink:href="#DejaVuSans-2193" x="69.824219"/>
     </g>
    </g>
   </g>
   <g id="text_7">
    <g id="patch_8">
     <path d="M 259.5 400.94375 
L 291.3 400.94375 
Q 301.3 400.94375 301.3 390.94375 
L 301.3 326.79625 
Q 301.3 316.79625 291.3 316.79625 
L 259.5 316.79625 
Q 249.5 316.79625 249.5 326.79625 
L 249.5 390.94375 
Q 249.5 400.94375 259.5 400.94375 
z
" clip-path="url(#pd53e5eb1f3)" style="fill: #ecdeed"/>
    </g>
    <g clip-path="url(#pd53e5eb1f3)">
     <!-- B↑ -->
     <g transform="translate(260.159375 341.993125)scale(0.2 -0.2)">
      <defs>
       <path id="DejaVuSans-42" d="M 1259 2228 
L 1259 519 
L 2272 519 
Q 2781 519 3026 730 
Q 3272 941 3272 1375 
Q 3272 1813 3026 2020 
Q 2781 2228 2272 2228 
L 1259 2228 
z
M 1259 4147 
L 1259 2741 
L 2194 2741 
Q 2656 2741 2882 2914 
Q 3109 3088 3109 3444 
Q 3109 3797 2882 3972 
Q 2656 4147 2194 4147 
L 1259 4147 
z
M 628 4666 
L 2241 4666 
Q 2963 4666 3353 4366 
Q 3744 4066 3744 3513 
Q 3744 3084 3544 2831 
Q 3344 2578 2956 2516 
Q 3422 2416 3680 2098 
Q 3938 1781 3938 1306 
Q 3938 681 3513 340 
Q 3088 0 2303 0 
L 628 0 
L 628 4666 
z
" transform="scale(0.015625)"/>
      </defs>
      <use xlink:href="#DejaVuSans-42"/>
      <use xlink:href="#DejaVuSans-2191" x="68.603516"/>
     </g>
    </g>
    <g clip-path="url(#pd53e5eb1f3)">
     <!-- H↑ -->
     <g transform="translate(259.5 364.38875)scale(0.2 -0.2)">
      <defs>
       <path id="DejaVuSans-48" d="M 628 4666 
L 1259 4666 
L 1259 2753 
L 3553 2753 
L 3553 4666 
L 4184 4666 
L 4184 0 
L 3553 0 
L 3553 2222 
L 1259 2222 
L 1259 0 
L 628 0 
L 628 4666 
z
" transform="scale(0.015625)"/>
      </defs>
      <use xlink:href="#DejaVuSans-48"/>
      <use xlink:href="#DejaVuSans-2191" x="75.195312"/>
     </g>
    </g>
    <g clip-path="url(#pd53e5eb1f3)">
     <!-- I↑ -->
     <g transform="translate(264.070312 386.784375)scale(0.2 -0.2)">
      <defs>
       <path id="DejaVuSans-49" d="M 628 4666 
L 1259 4666 
L 1259 0 
L 628 0 
L 628 4666 
z
" transform="scale(0.015625)"/>
      </defs>
      <use xlink:href="#DejaVuSans-49"/>
      <use xlink:href="#DejaVuSans-2191" x="29.492188"/>
     </g>
    </g>
   </g>
   <g id="text_8">
    <g id="patch_9">
     <path d="M 377.759375 474.498125 
L 408.240625 474.498125 
Q 418.240625 474.498125 418.240625 464.498125 
L 418.240625 445.141875 
Q 418.240625 435.141875 408.240625 435.141875 
L 377.759375 435.141875 
Q 367.759375 435.141875 367.759375 445.141875 
L 367.759375 464.498125 
Q 367.759375 474.498125 377.759375 474.498125 
z
" clip-path="url(#pd53e5eb1f3)" style="fill: #f3f3f3"/>
    </g>
    <g clip-path="url(#pd53e5eb1f3)">
     <!-- B↑ -->
     <g transform="translate(377.759375 460.33875)scale(0.2 -0.2)">
      <use xlink:href="#DejaVuSans-42"/>
      <use xlink:href="#DejaVuSans-2191" x="68.603516"/>
     </g>
    </g>
   </g>
   <g id="text_9">
    <g id="patch_10">
     <path d="M 475.1 474.498125 
L 506.9 474.498125 
Q 516.9 474.498125 516.9 464.498125 
L 516.9 445.141875 
Q 516.9 435.141875 506.9 435.141875 
L 475.1 435.141875 
Q 465.1 435.141875 465.1 445.141875 
L 465.1 464.498125 
Q 465.1 474.498125 475.1 474.498125 
z
" clip-path="url(#pd53e5eb1f3)" style="fill: #f3f3f3"/>
    </g>
    <g clip-path="url(#pd53e5eb1f3)">
     <!-- H↑ -->
     <g transform="translate(475.1 460.33875)scale(0.2 -0.2)">
      <use xlink:href="#DejaVuSans-48"/>
      <use xlink:href="#DejaVuSans-2191" x="75.195312"/>
     </g>
    </g>
   </g>
   <g id="text_10">
    <g id="patch_11">
     <path d="M 577.670313 474.498125 
L 600.329687 474.498125 
Q 610.329687 474.498125 610.329687 464.498125 
L 610.329687 445.141875 
Q 610.329687 435.141875 600.329687 435.141875 
L 577.670313 435.141875 
Q 567.670313 435.141875 567.670313 445.141875 
L 567.670313 464.498125 
Q 567.670313 474.498125 577.670313 474.498125 
z
" clip-path="url(#pd53e5eb1f3)" style="fill: #f3f3f3"/>
    </g>
    <g clip-path="url(#pd53e5eb1f3)">
     <!-- I↑ -->
     <g transform="translate(577.670313 460.33875)scale(0.2 -0.2)">
      <use xlink:href="#DejaVuSans-49"/>
      <use xlink:href="#DejaVuSans-2191" x="29.492188"/>
     </g>
    </g>
   </g>
   <g id="text_11">
    <g id="patch_12">
     <path d="M 332.686562 221.190125 
L 384.433437 221.190125 
Q 394.433437 221.190125 394.433437 211.190125 
L 394.433437 191.833875 
Q 394.433437 181.833875 384.433437 181.833875 
L 332.686562 181.833875 
Q 322.686562 181.833875 322.686562 191.833875 
L 322.686562 211.190125 
Q 322.686562 221.190125 332.686562 221.190125 
z
" clip-path="url(#pd53e5eb1f3)" style="fill: #58a6ec"/>
    </g>
    <g clip-path="url(#pd53e5eb1f3)">
     <!-- -0.02 -->
     <g transform="translate(332.686562 207.03075)scale(0.2 -0.2)">
      <defs>
       <path id="DejaVuSans-2d" d="M 313 2009 
L 1997 2009 
L 1997 1497 
L 313 1497 
L 313 2009 
z
" transform="scale(0.015625)"/>
      </defs>
      <use xlink:href="#DejaVuSans-2d"/>
      <use xlink:href="#DejaVuSans-30" x="36.083984"/>
      <use xlink:href="#DejaVuSans-2e" x="99.707031"/>
      <use xlink:href="#DejaVuSans-30" x="131.494141"/>
      <use xlink:href="#DejaVuSans-32" x="195.117188"/>
     </g>
    </g>
   </g>
   <g id="text_12">
    <g id="patch_13">
     <path d="M 578.214375 221.190125 
L 622.745625 221.190125 
Q 632.745625 221.190125 632.745625 211.190125 
L 632.745625 191.833875 
Q 632.745625 181.833875 622.745625 181.833875 
L 578.214375 181.833875 
Q 568.214375 181.833875 568.214375 191.833875 
L 568.214375 211.190125 
Q 568.214375 221.190125 578.214375 221.190125 
z
" clip-path="url(#pd53e5eb1f3)" style="fill: #ec6d6a"/>
    </g>
    <g clip-path="url(#pd53e5eb1f3)">
     <!-- 0.02 -->
     <g transform="translate(578.214375 207.03075)scale(0.2 -0.2)">
      <use xlink:href="#DejaVuSans-30"/>
      <use xlink:href="#DejaVuSans-2e" x="63.623047"/>
      <use xlink:href="#DejaVuSans-30" x="95.410156"/>
      <use xlink:href="#DejaVuSans-32" x="159.033203"/>
     </g>
    </g>
   </g>
   <g id="text_13">
    <g id="patch_14">
     <path d="M 675.670313 474.498125 
L 698.329688 474.498125 
Q 708.329688 474.498125 708.329688 464.498125 
L 708.329688 445.141875 
Q 708.329688 435.141875 698.329688 435.141875 
L 675.670313 435.141875 
Q 665.670313 435.141875 665.670313 445.141875 
L 665.670313 464.498125 
Q 665.670313 474.498125 675.670313 474.498125 
z
" clip-path="url(#pd53e5eb1f3)" style="fill: #f3f3f3"/>
    </g>
    <g clip-path="url(#pd53e5eb1f3)">
     <!-- J↓ -->
     <g transform="translate(675.670313 460.33875)scale(0.2 -0.2)">
      <defs>
       <path id="DejaVuSans-4a" d="M 628 4666 
L 1259 4666 
L 1259 325 
Q 1259 -519 939 -900 
Q 619 -1281 -91 -1281 
L -331 -1281 
L -331 -750 
L -134 -750 
Q 284 -750 456 -515 
Q 628 -281 628 325 
L 628 4666 
z
" transform="scale(0.015625)"/>
      </defs>
      <use xlink:href="#DejaVuSans-4a"/>
      <use xlink:href="#DejaVuSans-2193" x="29.492188"/>
     </g>
    </g>
   </g>
   <g id="text_14">
    <g id="patch_15">
     <path d="M 211.726562 221.190125 
L 263.473437 221.190125 
Q 273.473437 221.190125 273.473437 211.190125 
L 273.473437 191.833875 
Q 273.473437 181.833875 263.473437 181.833875 
L 211.726562 181.833875 
Q 201.726562 181.833875 201.726562 191.833875 
L 201.726562 211.190125 
Q 201.726562 221.190125 211.726562 221.190125 
z
" clip-path="url(#pd53e5eb1f3)" style="fill: #5ba8ec"/>
    </g>
    <g clip-path="url(#pd53e5eb1f3)">
     <!-- -0.02 -->
     <g transform="translate(211.726562 207.03075)scale(0.2 -0.2)">
      <use xlink:href="#DejaVuSans-2d"/>
      <use xlink:href="#DejaVuSans-30" x="36.083984"/>
      <use xlink:href="#DejaVuSans-2e" x="99.707031"/>
      <use xlink:href="#DejaVuSans-30" x="131.494141"/>
      <use xlink:href="#DejaVuSans-32" x="195.117188"/>
     </g>
    </g>
   </g>
   <g id="text_15">
    <g id="patch_16">
     <path d="M 816.526563 221.190125 
L 868.273438 221.190125 
Q 878.273438 221.190125 878.273438 211.190125 
L 878.273438 191.833875 
Q 878.273438 181.833875 868.273438 181.833875 
L 816.526563 181.833875 
Q 806.526563 181.833875 806.526563 191.833875 
L 806.526563 211.190125 
Q 806.526563 221.190125 816.526563 221.190125 
z
" clip-path="url(#pd53e5eb1f3)" style="fill: #5fabed"/>
    </g>
    <g clip-path="url(#pd53e5eb1f3)">
     <!-- -0.02 -->
     <g transform="translate(816.526563 207.03075)scale(0.2 -0.2)">
      <use xlink:href="#DejaVuSans-2d"/>
      <use xlink:href="#DejaVuSans-30" x="36.083984"/>
      <use xlink:href="#DejaVuSans-2e" x="99.707031"/>
      <use xlink:href="#DejaVuSans-30" x="131.494141"/>
      <use xlink:href="#DejaVuSans-32" x="195.117188"/>
     </g>
    </g>
   </g>
   <g id="text_16">
    <g id="patch_17">
     <path d="M 574.606562 155.944125 
L 626.353438 155.944125 
Q 636.353438 155.944125 636.353438 145.944125 
L 636.353438 126.587875 
Q 636.353438 116.587875 626.353438 116.587875 
L 574.606562 116.587875 
Q 564.606562 116.587875 564.606562 126.587875 
L 564.606562 145.944125 
Q 564.606562 155.944125 574.606562 155.944125 
z
" clip-path="url(#pd53e5eb1f3)" style="fill: #5fabed"/>
    </g>
    <g clip-path="url(#pd53e5eb1f3)">
     <!-- -0.02 -->
     <g transform="translate(574.606562 141.78475)scale(0.2 -0.2)">
      <use xlink:href="#DejaVuSans-2d"/>
      <use xlink:href="#DejaVuSans-30" x="36.083984"/>
      <use xlink:href="#DejaVuSans-2e" x="99.707031"/>
      <use xlink:href="#DejaVuSans-30" x="131.494141"/>
      <use xlink:href="#DejaVuSans-32" x="195.117188"/>
     </g>
    </g>
   </g>
   <g id="text_17">
    <g id="patch_18">
     <path d="M 457.254375 155.944125 
L 501.785625 155.944125 
Q 511.785625 155.944125 511.785625 145.944125 
L 511.785625 126.587875 
Q 511.785625 116.587875 501.785625 116.587875 
L 457.254375 116.587875 
Q 447.254375 116.587875 447.254375 126.587875 
L 447.254375 145.944125 
Q 447.254375 155.944125 457.254375 155.944125 
z
" clip-path="url(#pd53e5eb1f3)" style="fill: #ed7370"/>
    </g>
    <g clip-path="url(#pd53e5eb1f3)">
     <!-- 0.02 -->
     <g transform="translate(457.254375 141.78475)scale(0.2 -0.2)">
      <use xlink:href="#DejaVuSans-30"/>
      <use xlink:href="#DejaVuSans-2e" x="63.623047"/>
      <use xlink:href="#DejaVuSans-30" x="95.410156"/>
      <use xlink:href="#DejaVuSans-32" x="159.033203"/>
     </g>
    </g>
   </g>
   <g id="text_18">
    <g id="patch_19">
     <path d="M 574.606562 286.436125 
L 626.353438 286.436125 
Q 636.353438 286.436125 636.353438 276.436125 
L 636.353438 257.079875 
Q 636.353438 247.079875 626.353438 247.079875 
L 574.606562 247.079875 
Q 564.606562 247.079875 564.606562 257.079875 
L 564.606562 276.436125 
Q 564.606562 286.436125 574.606562 286.436125 
z
" clip-path="url(#pd53e5eb1f3)" style="fill: #66aeed"/>
    </g>
    <g clip-path="url(#pd53e5eb1f3)">
     <!-- -0.02 -->
     <g transform="translate(574.606562 272.27675)scale(0.2 -0.2)">
      <use xlink:href="#DejaVuSans-2d"/>
      <use xlink:href="#DejaVuSans-30" x="36.083984"/>
      <use xlink:href="#DejaVuSans-2e" x="99.707031"/>
      <use xlink:href="#DejaVuSans-30" x="131.494141"/>
      <use xlink:href="#DejaVuSans-32" x="195.117188"/>
     </g>
    </g>
   </g>
   <g id="text_19">
    <g id="patch_20">
     <path d="M 524.6375 400.94375 
L 555.3625 400.94375 
Q 565.3625 400.94375 565.3625 390.94375 
L 565.3625 326.79625 
Q 565.3625 316.79625 555.3625 316.79625 
L 524.6375 316.79625 
Q 514.6375 316.79625 514.6375 326.79625 
L 514.6375 390.94375 
Q 514.6375 400.94375 524.6375 400.94375 
z
" clip-path="url(#pd53e5eb1f3)" style="fill: #ecdeed"/>
    </g>
    <g clip-path="url(#pd53e5eb1f3)">
     <!-- A↑ -->
     <g transform="translate(524.779688 341.993125)scale(0.2 -0.2)">
      <defs>
       <path id="DejaVuSans-41" d="M 2188 4044 
L 1331 1722 
L 3047 1722 
L 2188 4044 
z
M 1831 4666 
L 2547 4666 
L 4325 0 
L 3669 0 
L 3244 1197 
L 1141 1197 
L 716 0 
L 50 0 
L 1831 4666 
z
" transform="scale(0.015625)"/>
      </defs>
      <use xlink:href="#DejaVuSans-41"/>
      <use xlink:href="#DejaVuSans-2191" x="68.408203"/>
     </g>
    </g>
    <g clip-path="url(#pd53e5eb1f3)">
     <!-- C↓ -->
     <g transform="translate(524.6375 364.38875)scale(0.2 -0.2)">
      <use xlink:href="#DejaVuSans-43"/>
      <use xlink:href="#DejaVuSans-2193" x="69.824219"/>
     </g>
    </g>
    <g clip-path="url(#pd53e5eb1f3)">
     <!-- E↑ -->
     <g transform="translate(525.301563 386.784375)scale(0.2 -0.2)">
      <defs>
       <path id="DejaVuSans-45" d="M 628 4666 
L 3578 4666 
L 3578 4134 
L 1259 4134 
L 1259 2753 
L 3481 2753 
L 3481 2222 
L 1259 2222 
L 1259 531 
L 3634 531 
L 3634 0 
L 628 0 
L 628 4666 
z
" transform="scale(0.015625)"/>
      </defs>
      <use xlink:href="#DejaVuSans-45"/>
      <use xlink:href="#DejaVuSans-2191" x="63.183594"/>
     </g>
    </g>
   </g>
   <g id="text_20">
    <g id="patch_21">
     <path d="M 769.779688 474.498125 
L 800.220313 474.498125 
Q 810.220313 474.498125 810.220313 464.498125 
L 810.220313 445.141875 
Q 810.220313 435.141875 800.220313 435.141875 
L 769.779688 435.141875 
Q 759.779688 435.141875 759.779688 445.141875 
L 759.779688 464.498125 
Q 759.779688 474.498125 769.779688 474.498125 
z
" clip-path="url(#pd53e5eb1f3)" style="fill: #f3f3f3"/>
    </g>
    <g clip-path="url(#pd53e5eb1f3)">
     <!-- A↑ -->
     <g transform="translate(769.779688 460.33875)scale(0.2 -0.2)">
      <use xlink:href="#DejaVuSans-41"/>
      <use xlink:href="#DejaVuSans-2191" x="68.408203"/>
     </g>
    </g>
   </g>
   <g id="text_21">
    <g id="patch_22">
     <path d="M 868.301563 474.498125 
L 897.698438 474.498125 
Q 907.698438 474.498125 907.698438 464.498125 
L 907.698438 445.141875 
Q 907.698438 435.141875 897.698438 435.141875 
L 868.301563 435.141875 
Q 858.301563 435.141875 858.301563 445.141875 
L 858.301563 464.498125 
Q 858.301563 474.498125 868.301563 474.498125 
z
" clip-path="url(#pd53e5eb1f3)" style="fill: #f3f3f3"/>
    </g>
    <g clip-path="url(#pd53e5eb1f3)">
     <!-- E↑ -->
     <g transform="translate(868.301563 460.33875)scale(0.2 -0.2)">
      <use xlink:href="#DejaVuSans-45"/>
      <use xlink:href="#DejaVuSans-2191" x="63.183594"/>
     </g>
    </g>
   </g>
   <g id="text_22">
    <g id="patch_23">
     <path d="M 90.766562 286.436125 
L 142.513438 286.436125 
Q 152.513438 286.436125 152.513438 276.436125 
L 152.513438 257.079875 
Q 152.513438 247.079875 142.513438 247.079875 
L 90.766562 247.079875 
Q 80.766562 247.079875 80.766562 257.079875 
L 80.766562 276.436125 
Q 80.766562 286.436125 90.766562 286.436125 
z
" clip-path="url(#pd53e5eb1f3)" style="fill: #67afed"/>
    </g>
    <g clip-path="url(#pd53e5eb1f3)">
     <!-- -0.02 -->
     <g transform="translate(90.766562 272.27675)scale(0.2 -0.2)">
      <use xlink:href="#DejaVuSans-2d"/>
      <use xlink:href="#DejaVuSans-30" x="36.083984"/>
      <use xlink:href="#DejaVuSans-2e" x="99.707031"/>
      <use xlink:href="#DejaVuSans-30" x="131.494141"/>
      <use xlink:href="#DejaVuSans-32" x="195.117188"/>
     </g>
    </g>
   </g>
   <g id="text_23">
    <g id="patch_24">
     <path d="M 90.766562 221.190125 
L 142.513438 221.190125 
Q 152.513438 221.190125 152.513438 211.190125 
L 152.513438 191.833875 
Q 152.513438 181.833875 142.513438 181.833875 
L 90.766562 181.833875 
Q 80.766562 181.833875 80.766562 191.833875 
L 80.766562 211.190125 
Q 80.766562 221.190125 90.766562 221.190125 
z
" clip-path="url(#pd53e5eb1f3)" style="fill: #69afee"/>
    </g>
    <g clip-path="url(#pd53e5eb1f3)">
     <!-- -0.02 -->
     <g transform="translate(90.766562 207.03075)scale(0.2 -0.2)">
      <use xlink:href="#DejaVuSans-2d"/>
      <use xlink:href="#DejaVuSans-30" x="36.083984"/>
      <use xlink:href="#DejaVuSans-2e" x="99.707031"/>
      <use xlink:href="#DejaVuSans-30" x="131.494141"/>
      <use xlink:href="#DejaVuSans-32" x="195.117188"/>
     </g>
    </g>
   </g>
   <g id="text_24">
    <g id="patch_25">
     <path d="M 699.174375 155.944125 
L 743.705625 155.944125 
Q 753.705625 155.944125 753.705625 145.944125 
L 753.705625 126.587875 
Q 753.705625 116.587875 743.705625 116.587875 
L 699.174375 116.587875 
Q 689.174375 116.587875 689.174375 126.587875 
L 689.174375 145.944125 
Q 689.174375 155.944125 699.174375 155.944125 
z
" clip-path="url(#pd53e5eb1f3)" style="fill: #ee7f7c"/>
    </g>
    <g clip-path="url(#pd53e5eb1f3)">
     <!-- 0.02 -->
     <g transform="translate(699.174375 141.78475)scale(0.2 -0.2)">
      <use xlink:href="#DejaVuSans-30"/>
      <use xlink:href="#DejaVuSans-2e" x="63.623047"/>
      <use xlink:href="#DejaVuSans-30" x="95.410156"/>
      <use xlink:href="#DejaVuSans-32" x="159.033203"/>
     </g>
    </g>
   </g>
   <g id="text_25">
    <g id="patch_26">
     <path d="M 941.094375 286.436125 
L 985.625625 286.436125 
Q 995.625625 286.436125 995.625625 276.436125 
L 995.625625 257.079875 
Q 995.625625 247.079875 985.625625 247.079875 
L 941.094375 247.079875 
Q 931.094375 247.079875 931.094375 257.079875 
L 931.094375 276.436125 
Q 931.094375 286.436125 941.094375 286.436125 
z
" clip-path="url(#pd53e5eb1f3)" style="fill: #ee7f7d"/>
    </g>
    <g clip-path="url(#pd53e5eb1f3)">
     <!-- 0.02 -->
     <g transform="translate(941.094375 272.27675)scale(0.2 -0.2)">
      <use xlink:href="#DejaVuSans-30"/>
      <use xlink:href="#DejaVuSans-2e" x="63.623047"/>
      <use xlink:href="#DejaVuSans-30" x="95.410156"/>
      <use xlink:href="#DejaVuSans-32" x="159.033203"/>
     </g>
    </g>
   </g>
   <g id="text_26">
    <g id="patch_27">
     <path d="M 820.134375 286.436125 
L 864.665625 286.436125 
Q 874.665625 286.436125 874.665625 276.436125 
L 874.665625 257.079875 
Q 874.665625 247.079875 864.665625 247.079875 
L 820.134375 247.079875 
Q 810.134375 247.079875 810.134375 257.079875 
L 810.134375 276.436125 
Q 810.134375 286.436125 820.134375 286.436125 
z
" clip-path="url(#pd53e5eb1f3)" style="fill: #ef827f"/>
    </g>
    <g clip-path="url(#pd53e5eb1f3)">
     <!-- 0.02 -->
     <g transform="translate(820.134375 272.27675)scale(0.2 -0.2)">
      <use xlink:href="#DejaVuSans-30"/>
      <use xlink:href="#DejaVuSans-2e" x="63.623047"/>
      <use xlink:href="#DejaVuSans-30" x="95.410156"/>
      <use xlink:href="#DejaVuSans-32" x="159.033203"/>
     </g>
    </g>
   </g>
   <g id="text_27">
    <g id="patch_28">
     <path d="M 90.766562 155.944125 
L 142.513438 155.944125 
Q 152.513438 155.944125 152.513438 145.944125 
L 152.513438 126.587875 
Q 152.513438 116.587875 142.513438 116.587875 
L 90.766562 116.587875 
Q 80.766562 116.587875 80.766562 126.587875 
L 80.766562 145.944125 
Q 80.766562 155.944125 90.766562 155.944125 
z
" clip-path="url(#pd53e5eb1f3)" style="fill: #71b4ef"/>
    </g>
    <g clip-path="url(#pd53e5eb1f3)">
     <!-- -0.02 -->
     <g transform="translate(90.766562 141.78475)scale(0.2 -0.2)">
      <use xlink:href="#DejaVuSans-2d"/>
      <use xlink:href="#DejaVuSans-30" x="36.083984"/>
      <use xlink:href="#DejaVuSans-2e" x="99.707031"/>
      <use xlink:href="#DejaVuSans-30" x="131.494141"/>
      <use xlink:href="#DejaVuSans-32" x="195.117188"/>
     </g>
    </g>
   </g>
   <g id="text_28">
    <g id="patch_29">
     <path d="M 788.520313 389.745938 
L 820.679688 389.745938 
Q 830.679688 389.745938 830.679688 379.745938 
L 830.679688 337.994063 
Q 830.679688 327.994063 820.679688 327.994063 
L 788.520313 327.994063 
Q 778.520313 327.994063 778.520313 337.994063 
L 778.520313 379.745938 
Q 778.520313 389.745938 788.520313 389.745938 
z
" clip-path="url(#pd53e5eb1f3)" style="fill: #ecdeed"/>
    </g>
    <g clip-path="url(#pd53e5eb1f3)">
     <!-- D↓ -->
     <g transform="translate(788.520313 353.190938)scale(0.2 -0.2)">
      <defs>
       <path id="DejaVuSans-44" d="M 1259 4147 
L 1259 519 
L 2022 519 
Q 2988 519 3436 956 
Q 3884 1394 3884 2338 
Q 3884 3275 3436 3711 
Q 2988 4147 2022 4147 
L 1259 4147 
z
M 628 4666 
L 1925 4666 
Q 3281 4666 3915 4102 
Q 4550 3538 4550 2338 
Q 4550 1131 3912 565 
Q 3275 0 1925 0 
L 628 0 
L 628 4666 
z
" transform="scale(0.015625)"/>
      </defs>
      <use xlink:href="#DejaVuSans-44"/>
      <use xlink:href="#DejaVuSans-2193" x="77.001953"/>
     </g>
    </g>
    <g clip-path="url(#pd53e5eb1f3)">
     <!-- J↓ -->
     <g transform="translate(793.270313 375.586563)scale(0.2 -0.2)">
      <use xlink:href="#DejaVuSans-4a"/>
      <use xlink:href="#DejaVuSans-2193" x="29.492188"/>
     </g>
    </g>
   </g>
   <g id="text_29">
    <g id="patch_30">
     <path d="M 964.920313 474.498125 
L 997.079688 474.498125 
Q 1007.079688 474.498125 1007.079688 464.498125 
L 1007.079688 445.141875 
Q 1007.079688 435.141875 997.079688 435.141875 
L 964.920313 435.141875 
Q 954.920313 435.141875 954.920313 445.141875 
L 954.920313 464.498125 
Q 954.920313 474.498125 964.920313 474.498125 
z
" clip-path="url(#pd53e5eb1f3)" style="fill: #f3f3f3"/>
    </g>
    <g clip-path="url(#pd53e5eb1f3)">
     <!-- D↓ -->
     <g transform="translate(964.920313 460.33875)scale(0.2 -0.2)">
      <use xlink:href="#DejaVuSans-44"/>
      <use xlink:href="#DejaVuSans-2193" x="77.001953"/>
     </g>
    </g>
   </g>
   <g id="text_30">
    <g id="patch_31">
     <path d="M 336.294375 286.436125 
L 380.825625 286.436125 
Q 390.825625 286.436125 390.825625 276.436125 
L 390.825625 257.079875 
Q 390.825625 247.079875 380.825625 247.079875 
L 336.294375 247.079875 
Q 326.294375 247.079875 326.294375 257.079875 
L 326.294375 276.436125 
Q 326.294375 286.436125 336.294375 286.436125 
z
" clip-path="url(#pd53e5eb1f3)" style="fill: #ef8482"/>
    </g>
    <g clip-path="url(#pd53e5eb1f3)">
     <!-- 0.02 -->
     <g transform="translate(336.294375 272.27675)scale(0.2 -0.2)">
      <use xlink:href="#DejaVuSans-30"/>
      <use xlink:href="#DejaVuSans-2e" x="63.623047"/>
      <use xlink:href="#DejaVuSans-30" x="95.410156"/>
      <use xlink:href="#DejaVuSans-32" x="159.033203"/>
     </g>
    </g>
   </g>
   <g id="text_31">
    <g id="patch_32">
     <path d="M 453.646563 286.436125 
L 505.393438 286.436125 
Q 515.393438 286.436125 515.393438 276.436125 
L 515.393438 257.079875 
Q 515.393438 247.079875 505.393438 247.079875 
L 453.646563 247.079875 
Q 443.646563 247.079875 443.646563 257.079875 
L 443.646563 276.436125 
Q 443.646563 286.436125 453.646563 286.436125 
z
" clip-path="url(#pd53e5eb1f3)" style="fill: #75b6ef"/>
    </g>
    <g clip-path="url(#pd53e5eb1f3)">
     <!-- -0.02 -->
     <g transform="translate(453.646563 272.27675)scale(0.2 -0.2)">
      <use xlink:href="#DejaVuSans-2d"/>
      <use xlink:href="#DejaVuSans-30" x="36.083984"/>
      <use xlink:href="#DejaVuSans-2e" x="99.707031"/>
      <use xlink:href="#DejaVuSans-30" x="131.494141"/>
      <use xlink:href="#DejaVuSans-32" x="195.117188"/>
     </g>
    </g>
   </g>
   <g id="text_32">
    <g id="patch_33">
     <path d="M 336.294375 155.944125 
L 380.825625 155.944125 
Q 390.825625 155.944125 390.825625 145.944125 
L 390.825625 126.587875 
Q 390.825625 116.587875 380.825625 116.587875 
L 336.294375 116.587875 
Q 326.294375 116.587875 326.294375 126.587875 
L 326.294375 145.944125 
Q 326.294375 155.944125 336.294375 155.944125 
z
" clip-path="url(#pd53e5eb1f3)" style="fill: #ef8684"/>
    </g>
    <g clip-path="url(#pd53e5eb1f3)">
     <!-- 0.01 -->
     <g transform="translate(336.294375 141.78475)scale(0.2 -0.2)">
      <defs>
       <path id="DejaVuSans-31" d="M 794 531 
L 1825 531 
L 1825 4091 
L 703 3866 
L 703 4441 
L 1819 4666 
L 2450 4666 
L 2450 531 
L 3481 531 
L 3481 0 
L 794 0 
L 794 531 
z
" transform="scale(0.015625)"/>
      </defs>
      <use xlink:href="#DejaVuSans-30"/>
      <use xlink:href="#DejaVuSans-2e" x="63.623047"/>
      <use xlink:href="#DejaVuSans-30" x="95.410156"/>
      <use xlink:href="#DejaVuSans-31" x="159.033203"/>
     </g>
    </g>
   </g>
   <g id="text_33">
    <g id="patch_34">
     <path d="M 937.486562 221.190125 
L 989.233438 221.190125 
Q 999.233438 221.190125 999.233438 211.190125 
L 999.233438 191.833875 
Q 999.233438 181.833875 989.233438 181.833875 
L 937.486562 181.833875 
Q 927.486562 181.833875 927.486562 191.833875 
L 927.486562 211.190125 
Q 927.486562 221.190125 937.486562 221.190125 
z
" clip-path="url(#pd53e5eb1f3)" style="fill: #76b7ef"/>
    </g>
    <g clip-path="url(#pd53e5eb1f3)">
     <!-- -0.01 -->
     <g transform="translate(937.486562 207.03075)scale(0.2 -0.2)">
      <use xlink:href="#DejaVuSans-2d"/>
      <use xlink:href="#DejaVuSans-30" x="36.083984"/>
      <use xlink:href="#DejaVuSans-2e" x="99.707031"/>
      <use xlink:href="#DejaVuSans-30" x="131.494141"/>
      <use xlink:href="#DejaVuSans-31" x="195.117188"/>
     </g>
    </g>
   </g>
   <g id="text_34">
    <g id="patch_35">
     <path d="M 695.566563 221.190125 
L 747.313438 221.190125 
Q 757.313438 221.190125 757.313438 211.190125 
L 757.313438 191.833875 
Q 757.313438 181.833875 747.313438 181.833875 
L 695.566563 181.833875 
Q 685.566563 181.833875 685.566563 191.833875 
L 685.566563 211.190125 
Q 685.566563 221.190125 695.566563 221.190125 
z
" clip-path="url(#pd53e5eb1f3)" style="fill: #77b7ef"/>
    </g>
    <g clip-path="url(#pd53e5eb1f3)">
     <!-- -0.01 -->
     <g transform="translate(695.566563 207.03075)scale(0.2 -0.2)">
      <use xlink:href="#DejaVuSans-2d"/>
      <use xlink:href="#DejaVuSans-30" x="36.083984"/>
      <use xlink:href="#DejaVuSans-2e" x="99.707031"/>
      <use xlink:href="#DejaVuSans-30" x="131.494141"/>
      <use xlink:href="#DejaVuSans-31" x="195.117188"/>
     </g>
    </g>
   </g>
   <g id="text_35">
    <g id="patch_36">
     <path d="M 457.254375 221.190125 
L 501.785625 221.190125 
Q 511.785625 221.190125 511.785625 211.190125 
L 511.785625 191.833875 
Q 511.785625 181.833875 501.785625 181.833875 
L 457.254375 181.833875 
Q 447.254375 181.833875 447.254375 191.833875 
L 447.254375 211.190125 
Q 447.254375 221.190125 457.254375 221.190125 
z
" clip-path="url(#pd53e5eb1f3)" style="fill: #f08a88"/>
    </g>
    <g clip-path="url(#pd53e5eb1f3)">
     <!-- 0.01 -->
     <g transform="translate(457.254375 207.03075)scale(0.2 -0.2)">
      <use xlink:href="#DejaVuSans-30"/>
      <use xlink:href="#DejaVuSans-2e" x="63.623047"/>
      <use xlink:href="#DejaVuSans-30" x="95.410156"/>
      <use xlink:href="#DejaVuSans-31" x="159.033203"/>
     </g>
    </g>
   </g>
   <g id="text_36">
    <g id="patch_37">
     <path d="M 937.486562 155.944125 
L 989.233438 155.944125 
Q 999.233438 155.944125 999.233438 145.944125 
L 999.233438 126.587875 
Q 999.233438 116.587875 989.233438 116.587875 
L 937.486562 116.587875 
Q 927.486562 116.587875 927.486562 126.587875 
L 927.486562 145.944125 
Q 927.486562 155.944125 937.486562 155.944125 
z
" clip-path="url(#pd53e5eb1f3)" style="fill: #7fbbf0"/>
    </g>
    <g clip-path="url(#pd53e5eb1f3)">
     <!-- -0.01 -->
     <g transform="translate(937.486562 141.78475)scale(0.2 -0.2)">
      <use xlink:href="#DejaVuSans-2d"/>
      <use xlink:href="#DejaVuSans-30" x="36.083984"/>
      <use xlink:href="#DejaVuSans-2e" x="99.707031"/>
      <use xlink:href="#DejaVuSans-30" x="131.494141"/>
      <use xlink:href="#DejaVuSans-31" x="195.117188"/>
     </g>
    </g>
   </g>
   <g id="text_37">
    <g id="patch_38">
     <path d="M 816.526563 155.944125 
L 868.273438 155.944125 
Q 878.273438 155.944125 878.273438 145.944125 
L 878.273438 126.587875 
Q 878.273438 116.587875 868.273438 116.587875 
L 816.526563 116.587875 
Q 806.526563 116.587875 806.526563 126.587875 
L 806.526563 145.944125 
Q 806.526563 155.944125 816.526563 155.944125 
z
" clip-path="url(#pd53e5eb1f3)" style="fill: #81bcf0"/>
    </g>
    <g clip-path="url(#pd53e5eb1f3)">
     <!-- -0.01 -->
     <g transform="translate(816.526563 141.78475)scale(0.2 -0.2)">
      <use xlink:href="#DejaVuSans-2d"/>
      <use xlink:href="#DejaVuSans-30" x="36.083984"/>
      <use xlink:href="#DejaVuSans-2e" x="99.707031"/>
      <use xlink:href="#DejaVuSans-30" x="131.494141"/>
      <use xlink:href="#DejaVuSans-31" x="195.117188"/>
     </g>
    </g>
   </g>
   <g id="text_38">
    <g id="patch_39">
     <path d="M 211.726562 286.436125 
L 263.473437 286.436125 
Q 273.473437 286.436125 273.473437 276.436125 
L 273.473437 257.079875 
Q 273.473437 247.079875 263.473437 247.079875 
L 211.726562 247.079875 
Q 201.726562 247.079875 201.726562 257.079875 
L 201.726562 276.436125 
Q 201.726562 286.436125 211.726562 286.436125 
z
" clip-path="url(#pd53e5eb1f3)" style="fill: #84bef1"/>
    </g>
    <g clip-path="url(#pd53e5eb1f3)">
     <!-- -0.01 -->
     <g transform="translate(211.726562 272.27675)scale(0.2 -0.2)">
      <use xlink:href="#DejaVuSans-2d"/>
      <use xlink:href="#DejaVuSans-30" x="36.083984"/>
      <use xlink:href="#DejaVuSans-2e" x="99.707031"/>
      <use xlink:href="#DejaVuSans-30" x="131.494141"/>
      <use xlink:href="#DejaVuSans-31" x="195.117188"/>
     </g>
    </g>
   </g>
   <g id="text_39">
    <!-- output=-2.25 | # edges: 117 | # nodes: 38 -->
    <g transform="translate(302.557812 26.64)scale(0.2 -0.2)">
     <defs>
      <path id="DejaVuSans-Bold-6f" d="M 2203 2784 
Q 1831 2784 1636 2517 
Q 1441 2250 1441 1747 
Q 1441 1244 1636 976 
Q 1831 709 2203 709 
Q 2569 709 2762 976 
Q 2956 1244 2956 1747 
Q 2956 2250 2762 2517 
Q 2569 2784 2203 2784 
z
M 2203 3584 
Q 3106 3584 3614 3096 
Q 4122 2609 4122 1747 
Q 4122 884 3614 396 
Q 3106 -91 2203 -91 
Q 1297 -91 786 396 
Q 275 884 275 1747 
Q 275 2609 786 3096 
Q 1297 3584 2203 3584 
z
" transform="scale(0.015625)"/>
      <path id="DejaVuSans-Bold-75" d="M 500 1363 
L 500 3500 
L 1625 3500 
L 1625 3150 
Q 1625 2866 1622 2436 
Q 1619 2006 1619 1863 
Q 1619 1441 1641 1255 
Q 1663 1069 1716 984 
Q 1784 875 1895 815 
Q 2006 756 2150 756 
Q 2500 756 2700 1025 
Q 2900 1294 2900 1772 
L 2900 3500 
L 4019 3500 
L 4019 0 
L 2900 0 
L 2900 506 
Q 2647 200 2364 54 
Q 2081 -91 1741 -91 
Q 1134 -91 817 281 
Q 500 653 500 1363 
z
" transform="scale(0.015625)"/>
      <path id="DejaVuSans-Bold-74" d="M 1759 4494 
L 1759 3500 
L 2913 3500 
L 2913 2700 
L 1759 2700 
L 1759 1216 
Q 1759 972 1856 886 
Q 1953 800 2241 800 
L 2816 800 
L 2816 0 
L 1856 0 
Q 1194 0 917 276 
Q 641 553 641 1216 
L 641 2700 
L 84 2700 
L 84 3500 
L 641 3500 
L 641 4494 
L 1759 4494 
z
" transform="scale(0.015625)"/>
      <path id="DejaVuSans-Bold-70" d="M 1656 506 
L 1656 -1331 
L 538 -1331 
L 538 3500 
L 1656 3500 
L 1656 2988 
Q 1888 3294 2169 3439 
Q 2450 3584 2816 3584 
Q 3463 3584 3878 3070 
Q 4294 2556 4294 1747 
Q 4294 938 3878 423 
Q 3463 -91 2816 -91 
Q 2450 -91 2169 54 
Q 1888 200 1656 506 
z
M 2400 2772 
Q 2041 2772 1848 2508 
Q 1656 2244 1656 1747 
Q 1656 1250 1848 986 
Q 2041 722 2400 722 
Q 2759 722 2948 984 
Q 3138 1247 3138 1747 
Q 3138 2247 2948 2509 
Q 2759 2772 2400 2772 
z
" transform="scale(0.015625)"/>
      <path id="DejaVuSans-Bold-3d" d="M 678 3084 
L 4684 3084 
L 4684 2350 
L 678 2350 
L 678 3084 
z
M 678 1663 
L 4684 1663 
L 4684 922 
L 678 922 
L 678 1663 
z
" transform="scale(0.015625)"/>
      <path id="DejaVuSans-Bold-2d" d="M 347 2297 
L 2309 2297 
L 2309 1388 
L 347 1388 
L 347 2297 
z
" transform="scale(0.015625)"/>
      <path id="DejaVuSans-Bold-32" d="M 1844 884 
L 3897 884 
L 3897 0 
L 506 0 
L 506 884 
L 2209 2388 
Q 2438 2594 2547 2791 
Q 2656 2988 2656 3200 
Q 2656 3528 2436 3728 
Q 2216 3928 1850 3928 
Q 1569 3928 1234 3808 
Q 900 3688 519 3450 
L 519 4475 
Q 925 4609 1322 4679 
Q 1719 4750 2100 4750 
Q 2938 4750 3402 4381 
Q 3866 4013 3866 3353 
Q 3866 2972 3669 2642 
Q 3472 2313 2841 1759 
L 1844 884 
z
" transform="scale(0.015625)"/>
      <path id="DejaVuSans-Bold-2e" d="M 653 1209 
L 1778 1209 
L 1778 0 
L 653 0 
L 653 1209 
z
" transform="scale(0.015625)"/>
      <path id="DejaVuSans-Bold-35" d="M 678 4666 
L 3669 4666 
L 3669 3781 
L 1638 3781 
L 1638 3059 
Q 1775 3097 1914 3117 
Q 2053 3138 2203 3138 
Q 3056 3138 3531 2711 
Q 4006 2284 4006 1522 
Q 4006 766 3489 337 
Q 2972 -91 2053 -91 
Q 1656 -91 1267 -14 
Q 878 63 494 219 
L 494 1166 
Q 875 947 1217 837 
Q 1559 728 1863 728 
Q 2300 728 2551 942 
Q 2803 1156 2803 1522 
Q 2803 1891 2551 2103 
Q 2300 2316 1863 2316 
Q 1603 2316 1309 2248 
Q 1016 2181 678 2041 
L 678 4666 
z
" transform="scale(0.015625)"/>
      <path id="DejaVuSans-Bold-20" transform="scale(0.015625)"/>
      <path id="DejaVuSans-Bold-7c" d="M 1522 4891 
L 1522 -1509 
L 813 -1509 
L 813 4891 
L 1522 4891 
z
" transform="scale(0.015625)"/>
      <path id="DejaVuSans-Bold-23" d="M 2847 4594 
L 2547 3391 
L 3372 3391 
L 3675 4594 
L 4366 4594 
L 4063 3391 
L 4928 3391 
L 4928 2725 
L 3897 2725 
L 3681 1869 
L 4569 1869 
L 4569 1197 
L 3519 1197 
L 3219 0 
L 2528 0 
L 2828 1197 
L 2003 1197 
L 1703 0 
L 1006 0 
L 1306 1197 
L 434 1197 
L 434 1869 
L 1459 1869 
L 1678 2725 
L 794 2725 
L 794 3391 
L 1850 3391 
L 2150 4594 
L 2847 4594 
z
M 3200 2725 
L 2375 2725 
L 2156 1869 
L 2981 1869 
L 3200 2725 
z
" transform="scale(0.015625)"/>
      <path id="DejaVuSans-Bold-65" d="M 4031 1759 
L 4031 1441 
L 1416 1441 
Q 1456 1047 1700 850 
Q 1944 653 2381 653 
Q 2734 653 3104 758 
Q 3475 863 3866 1075 
L 3866 213 
Q 3469 63 3072 -14 
Q 2675 -91 2278 -91 
Q 1328 -91 801 392 
Q 275 875 275 1747 
Q 275 2603 792 3093 
Q 1309 3584 2216 3584 
Q 3041 3584 3536 3087 
Q 4031 2591 4031 1759 
z
M 2881 2131 
Q 2881 2450 2695 2645 
Q 2509 2841 2209 2841 
Q 1884 2841 1681 2658 
Q 1478 2475 1428 2131 
L 2881 2131 
z
" transform="scale(0.015625)"/>
      <path id="DejaVuSans-Bold-64" d="M 2919 2988 
L 2919 4863 
L 4044 4863 
L 4044 0 
L 2919 0 
L 2919 506 
Q 2688 197 2409 53 
Q 2131 -91 1766 -91 
Q 1119 -91 703 423 
Q 288 938 288 1747 
Q 288 2556 703 3070 
Q 1119 3584 1766 3584 
Q 2128 3584 2408 3439 
Q 2688 3294 2919 2988 
z
M 2181 722 
Q 2541 722 2730 984 
Q 2919 1247 2919 1747 
Q 2919 2247 2730 2509 
Q 2541 2772 2181 2772 
Q 1825 2772 1636 2509 
Q 1447 2247 1447 1747 
Q 1447 1247 1636 984 
Q 1825 722 2181 722 
z
" transform="scale(0.015625)"/>
      <path id="DejaVuSans-Bold-67" d="M 2919 594 
Q 2688 288 2409 144 
Q 2131 0 1766 0 
Q 1125 0 706 504 
Q 288 1009 288 1791 
Q 288 2575 706 3076 
Q 1125 3578 1766 3578 
Q 2131 3578 2409 3434 
Q 2688 3291 2919 2981 
L 2919 3500 
L 4044 3500 
L 4044 353 
Q 4044 -491 3511 -936 
Q 2978 -1381 1966 -1381 
Q 1638 -1381 1331 -1331 
Q 1025 -1281 716 -1178 
L 716 -306 
Q 1009 -475 1290 -558 
Q 1572 -641 1856 -641 
Q 2406 -641 2662 -400 
Q 2919 -159 2919 353 
L 2919 594 
z
M 2181 2772 
Q 1834 2772 1640 2515 
Q 1447 2259 1447 1791 
Q 1447 1309 1634 1061 
Q 1822 813 2181 813 
Q 2531 813 2725 1069 
Q 2919 1325 2919 1791 
Q 2919 2259 2725 2515 
Q 2531 2772 2181 2772 
z
" transform="scale(0.015625)"/>
      <path id="DejaVuSans-Bold-73" d="M 3272 3391 
L 3272 2541 
Q 2913 2691 2578 2766 
Q 2244 2841 1947 2841 
Q 1628 2841 1473 2761 
Q 1319 2681 1319 2516 
Q 1319 2381 1436 2309 
Q 1553 2238 1856 2203 
L 2053 2175 
Q 2913 2066 3209 1816 
Q 3506 1566 3506 1031 
Q 3506 472 3093 190 
Q 2681 -91 1863 -91 
Q 1516 -91 1145 -36 
Q 775 19 384 128 
L 384 978 
Q 719 816 1070 734 
Q 1422 653 1784 653 
Q 2113 653 2278 743 
Q 2444 834 2444 1013 
Q 2444 1163 2330 1236 
Q 2216 1309 1875 1350 
L 1678 1375 
Q 931 1469 631 1722 
Q 331 1975 331 2491 
Q 331 3047 712 3315 
Q 1094 3584 1881 3584 
Q 2191 3584 2531 3537 
Q 2872 3491 3272 3391 
z
" transform="scale(0.015625)"/>
      <path id="DejaVuSans-Bold-3a" d="M 716 3500 
L 1844 3500 
L 1844 2291 
L 716 2291 
L 716 3500 
z
M 716 1209 
L 1844 1209 
L 1844 0 
L 716 0 
L 716 1209 
z
" transform="scale(0.015625)"/>
      <path id="DejaVuSans-Bold-31" d="M 750 831 
L 1813 831 
L 1813 3847 
L 722 3622 
L 722 4441 
L 1806 4666 
L 2950 4666 
L 2950 831 
L 4013 831 
L 4013 0 
L 750 0 
L 750 831 
z
" transform="scale(0.015625)"/>
      <path id="DejaVuSans-Bold-37" d="M 428 4666 
L 3944 4666 
L 3944 3988 
L 2125 0 
L 953 0 
L 2675 3781 
L 428 3781 
L 428 4666 
z
" transform="scale(0.015625)"/>
      <path id="DejaVuSans-Bold-6e" d="M 4056 2131 
L 4056 0 
L 2931 0 
L 2931 347 
L 2931 1631 
Q 2931 2084 2911 2256 
Q 2891 2428 2841 2509 
Q 2775 2619 2662 2680 
Q 2550 2741 2406 2741 
Q 2056 2741 1856 2470 
Q 1656 2200 1656 1722 
L 1656 0 
L 538 0 
L 538 3500 
L 1656 3500 
L 1656 2988 
Q 1909 3294 2193 3439 
Q 2478 3584 2822 3584 
Q 3428 3584 3742 3212 
Q 4056 2841 4056 2131 
z
" transform="scale(0.015625)"/>
      <path id="DejaVuSans-Bold-33" d="M 2981 2516 
Q 3453 2394 3698 2092 
Q 3944 1791 3944 1325 
Q 3944 631 3412 270 
Q 2881 -91 1863 -91 
Q 1503 -91 1142 -33 
Q 781 25 428 141 
L 428 1069 
Q 766 900 1098 814 
Q 1431 728 1753 728 
Q 2231 728 2486 893 
Q 2741 1059 2741 1369 
Q 2741 1688 2480 1852 
Q 2219 2016 1709 2016 
L 1228 2016 
L 1228 2791 
L 1734 2791 
Q 2188 2791 2409 2933 
Q 2631 3075 2631 3366 
Q 2631 3634 2415 3781 
Q 2200 3928 1806 3928 
Q 1516 3928 1219 3862 
Q 922 3797 628 3669 
L 628 4550 
Q 984 4650 1334 4700 
Q 1684 4750 2022 4750 
Q 2931 4750 3382 4451 
Q 3834 4153 3834 3553 
Q 3834 3144 3618 2883 
Q 3403 2622 2981 2516 
z
" transform="scale(0.015625)"/>
      <path id="DejaVuSans-Bold-38" d="M 2228 2088 
Q 1891 2088 1709 1903 
Q 1528 1719 1528 1375 
Q 1528 1031 1709 848 
Q 1891 666 2228 666 
Q 2563 666 2741 848 
Q 2919 1031 2919 1375 
Q 2919 1722 2741 1905 
Q 2563 2088 2228 2088 
z
M 1350 2484 
Q 925 2613 709 2878 
Q 494 3144 494 3541 
Q 494 4131 934 4440 
Q 1375 4750 2228 4750 
Q 3075 4750 3515 4442 
Q 3956 4134 3956 3541 
Q 3956 3144 3739 2878 
Q 3522 2613 3097 2484 
Q 3572 2353 3814 2058 
Q 4056 1763 4056 1313 
Q 4056 619 3595 264 
Q 3134 -91 2228 -91 
Q 1319 -91 855 264 
Q 391 619 391 1313 
Q 391 1763 633 2058 
Q 875 2353 1350 2484 
z
M 1631 3419 
Q 1631 3141 1786 2991 
Q 1941 2841 2228 2841 
Q 2509 2841 2662 2991 
Q 2816 3141 2816 3419 
Q 2816 3697 2662 3845 
Q 2509 3994 2228 3994 
Q 1941 3994 1786 3844 
Q 1631 3694 1631 3419 
z
" transform="scale(0.015625)"/>
     </defs>
     <use xlink:href="#DejaVuSans-Bold-6f"/>
     <use xlink:href="#DejaVuSans-Bold-75" x="68.701172"/>
     <use xlink:href="#DejaVuSans-Bold-74" x="139.892578"/>
     <use xlink:href="#DejaVuSans-Bold-70" x="187.695312"/>
     <use xlink:href="#DejaVuSans-Bold-75" x="259.277344"/>
     <use xlink:href="#DejaVuSans-Bold-74" x="330.46875"/>
     <use xlink:href="#DejaVuSans-Bold-3d" x="378.271484"/>
     <use xlink:href="#DejaVuSans-Bold-2d" x="462.060547"/>
     <use xlink:href="#DejaVuSans-Bold-32" x="503.564453"/>
     <use xlink:href="#DejaVuSans-Bold-2e" x="573.144531"/>
     <use xlink:href="#DejaVuSans-Bold-32" x="611.132812"/>
     <use xlink:href="#DejaVuSans-Bold-35" x="680.712891"/>
     <use xlink:href="#DejaVuSans-Bold-20" x="750.292969"/>
     <use xlink:href="#DejaVuSans-Bold-7c" x="785.107422"/>
     <use xlink:href="#DejaVuSans-Bold-20" x="821.630859"/>
     <use xlink:href="#DejaVuSans-Bold-23" x="856.445312"/>
     <use xlink:href="#DejaVuSans-Bold-20" x="940.234375"/>
     <use xlink:href="#DejaVuSans-Bold-65" x="975.048828"/>
     <use xlink:href="#DejaVuSans-Bold-64" x="1042.871094"/>
     <use xlink:href="#DejaVuSans-Bold-67" x="1114.453125"/>
     <use xlink:href="#DejaVuSans-Bold-65" x="1186.035156"/>
     <use xlink:href="#DejaVuSans-Bold-73" x="1253.857422"/>
     <use xlink:href="#DejaVuSans-Bold-3a" x="1313.378906"/>
     <use xlink:href="#DejaVuSans-Bold-20" x="1353.369141"/>
     <use xlink:href="#DejaVuSans-Bold-31" x="1388.183594"/>
     <use xlink:href="#DejaVuSans-Bold-31" x="1457.763672"/>
     <use xlink:href="#DejaVuSans-Bold-37" x="1527.34375"/>
     <use xlink:href="#DejaVuSans-Bold-20" x="1596.923828"/>
     <use xlink:href="#DejaVuSans-Bold-7c" x="1631.738281"/>
     <use xlink:href="#DejaVuSans-Bold-20" x="1668.261719"/>
     <use xlink:href="#DejaVuSans-Bold-23" x="1703.076172"/>
     <use xlink:href="#DejaVuSans-Bold-20" x="1786.865234"/>
     <use xlink:href="#DejaVuSans-Bold-6e" x="1821.679688"/>
     <use xlink:href="#DejaVuSans-Bold-6f" x="1892.871094"/>
     <use xlink:href="#DejaVuSans-Bold-64" x="1961.572266"/>
     <use xlink:href="#DejaVuSans-Bold-65" x="2033.154297"/>
     <use xlink:href="#DejaVuSans-Bold-73" x="2100.976562"/>
     <use xlink:href="#DejaVuSans-Bold-3a" x="2160.498047"/>
     <use xlink:href="#DejaVuSans-Bold-20" x="2200.488281"/>
     <use xlink:href="#DejaVuSans-Bold-33" x="2235.302734"/>
     <use xlink:href="#DejaVuSans-Bold-38" x="2304.882812"/>
    </g>
   </g>
  </g>
 </g>
 <defs>
  <clipPath id="pd53e5eb1f3">
   <rect x="10.8" y="32.64" width="1058.4" height="460.56"/>
  </clipPath>
 </defs>
</svg>
